<svg xmlns="http://www.w3.org/2000/svg" width="670.000000pt" height="377.000000pt" viewBox="0 0 670.000000 377.000000" preserveAspectRatio="xMidYMid meet"><g transform="translate(0.000000,377.000000) scale(0.100000,-0.100000)" fill="#000000" stroke="none"><path d="M1660 3738 c1 -23 8 -38 25 -51 27 -19 35 -8 10 13 -8 7 -15 16 -15 21 0 12 47 11 55 -1 3 -5 11 -8 18 -6 7 1 9 1 6 -1 -3 -2 -4 -14 -2 -26 4 -28 -24 -61 -62 -74 -25 -8 -30 -15 -33 -48 -3 -34 -2 -37 12 -26 13 11 16 11 16 -3 0 -9 7 -19 15 -22 24 -10 18 -21 -15 -27 l-30 -6 0 -112 c0 -89 3 -116 16 -130 9 -10 23 -15 32 -11 15 5 15 4 2 -14 -8 -10 -22 -28 -32 -39 -16 -19 -18 -48 -20 -265 -3 -236 -4 -245 -23 -248 -23 -4 -82 -29 -105 -43 -26 -17 -174 -86 -213 -100 -21 -7 -36 -18 -33 -25 3 -8 -11 -14 -39 -18 -24 -4 -60 -20 -81 -36 -48 -36 -54 -37 -54 -6 0 35 -20 43 -21 9 0 -23 -2 -25 -8 -9 -5 14 -10 16 -15 8 -4 -7 -12 -10 -17 -7 -5 4 -9 2 -9 -3 0 -5 -27 -9 -60 -10 -33 0 -59 2 -56 6 2 4 0 16 -5 27 -6 16 -8 11 -9 -20 l-2 -40 -13 45 -12 45 -4 -45 c-4 -45 -4 -45 -41 -45 -27 0 -42 -6 -53 -22 -9 -13 -22 -20 -30 -17 -8 4 -15 1 -15 -5 0 -6 -11 -11 -25 -11 -18 0 -23 -4 -19 -15 4 -8 1 -15 -6 -15 -6 0 -8 5 -5 10 10 16 -19 22 -46 10 -21 -9 -21 -10 -2 -6 18 3 21 0 18 -23 -1 -14 -3 -34 -4 -43 -1 -12 -6 -15 -17 -11 -10 4 -14 13 -10 26 5 22 -20 67 -38 67 -18 -1 -60 -37 -49 -43 6 -4 8 -30 5 -59 -3 -42 -2 -51 8 -41 7 7 27 9 49 6 33 -6 35 -5 22 10 -12 15 -11 17 8 17 18 0 21 -5 20 -42 -1 -24 -3 -35 -6 -25 -7 25 -23 21 -23 -7 0 -13 -5 -26 -10 -28 -6 -2 -12 -13 -13 -25 0 -12 -5 -20 -9 -17 -4 3 -5 10 -3 17 10 34 13 77 6 77 -5 0 -12 -22 -16 -50 -7 -49 -25 -79 -25 -43 -1 13 -5 11 -16 -9 -8 -16 -16 -28 -18 -28 -2 0 -4 74 -5 164 -1 157 -1 164 19 169 12 3 27 -2 37 -11 12 -13 17 -14 21 -4 3 10 8 8 18 -5 8 -11 13 -13 14 -5 0 9 5 10 19 3 15 -9 22 -6 35 14 9 14 23 25 31 25 8 0 15 6 15 14 0 17 -24 28 -44 20 -11 -4 -13 0 -9 15 3 14 0 23 -11 27 -25 10 -21 82 6 105 11 11 25 19 30 19 4 0 8 4 8 10 0 5 -3 9 -7 9 -5 -1 -19 -1 -32 0 -24 1 -24 1 -5 16 18 14 18 14 -5 15 -23 0 -23 1 -7 18 16 18 15 19 -15 20 -18 0 -36 5 -41 10 -6 6 0 8 16 5 15 -3 26 -1 26 6 0 6 -11 11 -24 11 -35 0 -43 20 -9 21 25 0 26 1 8 9 -11 5 -32 9 -47 9 -16 1 -28 5 -28 11 0 5 13 7 30 4 19 -4 30 -2 30 5 0 6 -10 11 -22 11 -13 0 -33 3 -46 6 -18 5 -24 2 -29 -15 -3 -11 -10 -21 -15 -21 -5 0 -8 -8 -6 -17 2 -11 -2 -17 -10 -15 -9 2 -11 -4 -7 -18 5 -14 2 -20 -10 -20 -12 0 -15 -6 -10 -20 4 -14 2 -20 -9 -20 -10 0 -13 -6 -10 -15 4 -10 0 -15 -15 -15 -27 0 -27 -16 -1 -23 17 -4 20 -14 20 -61 0 -55 -1 -57 -30 -62 -26 -6 -30 -11 -30 -40 0 -32 -1 -33 -25 -24 -15 6 -25 6 -25 0 0 -5 9 -12 20 -15 11 -3 20 -13 20 -21 0 -11 -8 -14 -32 -10 -47 8 -106 16 -158 22 -25 3 -71 9 -102 13 l-57 8 -1 -1204 0 -1203 1670 0 c1663 0 1670 0 1670 20 0 13 7 20 20 20 22 0 26 -10 10 -26 -7 -7 3 -11 32 -12 24 -1 38 2 32 6 -6 4 -10 14 -9 22 2 10 -7 15 -25 16 -56 2 -60 8 -60 84 l0 71 28 -15 c15 -7 43 -17 62 -20 31 -6 28 -3 -27 29 -35 20 -63 40 -63 46 0 14 2 13 121 -47 61 -30 113 -53 116 -51 4 5 -181 108 -219 122 -10 4 -18 14 -18 22 0 9 5 11 13 7 7 -5 7 -1 -2 10 -13 15 -13 19 0 27 10 6 10 9 2 9 -7 0 -13 5 -13 10 0 17 25 11 38 -10 7 -11 19 -20 27 -20 18 0 19 -12 3 -28 -9 -9 -9 -12 3 -12 8 0 31 -8 52 -19 48 -24 75 -31 79 -19 2 6 14 5 31 -1 19 -7 26 -15 20 -23 -4 -7 5 -5 20 5 32 21 51 22 43 2 -4 -10 1 -15 14 -15 11 0 20 -5 20 -12 0 -6 3 -9 6 -5 3 3 20 -2 37 -12 52 -28 67 -32 67 -16 0 8 -7 15 -16 15 -8 0 -12 4 -9 10 4 6 17 4 36 -5 32 -17 35 -41 9 -62 -21 -17 -9 -16 28 2 30 16 32 15 60 -14 16 -17 32 -28 35 -24 4 3 13 0 22 -7 12 -10 15 -10 15 4 0 22 27 20 40 -3 6 -13 17 -17 30 -14 11 3 31 -2 44 -10 21 -14 26 -15 36 -1 11 12 10 13 -4 8 -14 -5 -17 -2 -15 17 2 13 -3 34 -10 47 -12 22 -14 22 -30 8 -20 -18 -47 -21 -56 -6 -4 7 3 8 20 4 19 -5 25 -3 23 7 -5 24 -21 28 -47 11 -25 -16 -26 -16 -11 3 14 17 13 18 -3 12 -10 -4 -16 -3 -13 2 8 12 86 10 86 -2 0 -5 7 -4 15 3 8 7 23 9 37 4 35 -12 49 -13 43 -4 -13 20 -202 43 -209 25 -3 -6 -9 -3 -15 5 -9 12 -11 9 -11 -13 0 -17 -4 -26 -10 -22 -6 4 -17 1 -25 -5 -21 -17 -51 -5 -36 14 10 11 8 16 -8 21 -20 6 -19 35 1 35 6 0 8 -6 5 -12 -3 -8 5 -14 19 -14 13 -1 24 2 24 8 0 5 -5 6 -10 3 -6 -3 -10 3 -10 14 0 17 -4 18 -30 11 -19 -6 -29 -5 -27 2 2 10 -18 18 -59 22 -25 3 -96 65 -88 78 9 14 33 9 55 -13 l21 -21 -7 21 c-4 15 -2 21 8 21 8 0 14 -7 13 -16 0 -9 5 -19 13 -22 9 -3 11 1 7 16 -13 38 69 33 100 -7 6 -8 15 -11 21 -8 13 8 55 -22 48 -34 -4 -5 0 -9 9 -9 8 0 22 -3 30 -6 12 -5 15 -2 10 10 -5 12 0 16 18 16 13 0 29 5 36 12 9 9 12 9 12 0 0 -12 67 -47 84 -43 4 1 13 -2 20 -7 18 -14 55 -21 62 -11 3 5 10 9 15 9 6 0 8 -4 4 -9 -3 -5 8 -9 23 -9 16 1 44 -8 62 -18 24 -14 34 -16 37 -6 3 6 12 12 20 12 13 0 13 -3 3 -15 -9 -11 -9 -15 -1 -15 7 0 10 -4 6 -10 -3 -5 0 -18 6 -28 9 -14 22 -19 50 -17 28 2 39 -2 42 -15 2 -9 16 -19 30 -22 15 -3 24 -2 22 2 -3 5 2 10 10 14 10 3 15 -1 16 -12 0 -11 2 -12 6 -4 4 10 8 10 21 0 10 -8 13 -8 9 -1 -5 8 -1 8 17 0 14 -7 24 -14 23 -17 -1 -3 3 -6 8 -7 6 -1 8 6 7 15 -3 13 -1 14 11 4 7 -6 18 -8 22 -4 5 4 5 1 1 -6 -5 -8 1 -12 20 -12 15 0 33 -8 40 -17 13 -17 13 -17 14 1 0 15 3 16 15 6 8 -6 18 -9 24 -6 5 3 23 -8 41 -24 18 -17 30 -23 26 -15 -3 9 0 15 9 15 8 0 14 -5 12 -11 -1 -6 4 -14 12 -17 8 -2 11 0 8 6 -8 11 32 24 47 15 5 -4 1 -10 -10 -14 -10 -4 304 -8 699 -8 428 0 716 3 712 9 -3 5 -1 11 5 15 5 3 10 -1 10 -9 0 -12 11 -16 45 -16 28 0 45 4 45 12 0 9 3 9 12 0 8 -8 47 -12 110 -12 l98 0 -1 1303 c-1 716 -4 1371 -6 1454 -5 145 -6 152 -23 143 -23 -12 -30 -13 -30 -1 0 15 31 42 41 36 5 -4 9 161 9 414 l0 421 -190 0 -190 0 6 -25 c6 -24 5 -25 -45 -25 -42 0 -55 4 -73 25 l-22 25 -310 0 -310 0 -25 -24 c-25 -23 -45 -30 -84 -27 -14 1 -16 7 -11 27 l7 25 -179 -3 -179 -3 -3 -85 c-4 -89 -12 -110 -43 -110 -17 0 -19 -8 -18 -72 1 -40 4 -63 6 -50 2 12 9 22 14 22 5 0 7 -11 3 -25 -4 -18 -1 -27 10 -31 24 -9 19 -24 -9 -24 l-25 0 -1 -207 c-1 -115 -2 -226 -3 -248 l-1 -40 -70 -3 c-43 -2 -76 -9 -86 -18 -13 -11 -18 -12 -21 -3 -3 8 -32 13 -84 15 -66 2 -76 0 -61 -10 9 -7 17 -21 17 -30 0 -12 -10 -16 -42 -16 -32 0 -39 3 -28 10 8 5 13 10 10 10 -3 1 -25 3 -49 6 -49 5 -64 11 -56 24 9 14 -46 37 -93 39 -24 0 -48 3 -53 7 -5 3 -9 0 -9 -5 0 -6 5 -11 11 -11 6 0 26 -7 45 -16 42 -20 45 -44 5 -44 -20 0 -30 -6 -34 -20 -6 -24 -52 -28 -61 -5 -3 8 -12 15 -21 15 -17 0 -21 26 -5 32 6 2 -4 19 -22 39 -23 25 -40 35 -56 33 -28 -5 -92 21 -92 36 0 6 -4 8 -10 5 -5 -3 -10 -13 -10 -22 0 -9 3 -14 6 -11 5 5 25 0 114 -29 12 -4 12 -7 -4 -19 -17 -12 -23 -12 -42 1 -20 13 -25 12 -46 -4 -12 -10 -34 -20 -48 -24 -26 -5 -62 4 -61 16 4 31 -1 37 -29 37 -18 0 -30 -5 -30 -13 0 -10 -15 -13 -54 -13 -30 1 -52 4 -49 9 2 4 -8 12 -22 17 -14 5 -24 14 -21 19 7 11 -18 21 -55 21 -19 0 -29 5 -29 15 0 20 -29 19 -51 -1 -21 -19 -60 -11 -41 8 23 23 13 38 -23 38 -19 0 -35 5 -35 10 0 6 -3 9 -7 8 -5 -1 -19 4 -32 11 -17 9 -20 16 -12 24 6 6 11 19 11 30 0 10 5 15 10 12 6 -3 13 1 16 9 6 16 71 42 81 32 4 -3 11 -2 17 3 21 16 109 32 140 25 45 -10 81 -35 64 -45 -7 -5 -8 -9 -3 -9 6 0 3 -5 -5 -10 -13 -9 -13 -10 1 -10 8 0 20 5 27 12 8 8 12 9 12 1 0 -16 -26 -40 -50 -48 -11 -3 -20 -11 -20 -16 0 -5 -7 -9 -15 -9 -28 0 -15 -18 21 -30 31 -11 37 -10 49 6 7 11 9 21 4 24 -4 3 5 11 21 17 27 10 29 10 20 -7 -8 -15 -6 -20 11 -25 13 -4 27 -1 36 8 13 12 13 16 -1 29 -11 12 -12 18 -3 27 9 9 9 16 0 30 -10 17 -8 21 18 31 22 9 36 10 52 2 12 -5 36 -15 54 -22 19 -7 30 -17 27 -25 -9 -21 49 -44 62 -24 2 4 19 3 36 -2 18 -5 68 -12 110 -15 43 -4 78 -9 78 -12 0 -3 -7 -14 -17 -24 -15 -17 -15 -18 3 -18 11 0 25 -5 32 -12 9 -9 15 -9 24 0 7 7 20 12 30 12 10 0 21 6 24 14 4 9 17 13 40 11 31 -3 34 -1 29 16 -8 25 15 25 43 -1 28 -26 39 -25 46 4 3 13 9 31 12 40 4 12 0 16 -15 16 -12 0 -21 4 -21 9 0 12 39 21 46 10 8 -13 21 -11 39 8 14 14 21 14 37 4 13 -8 35 -10 65 -5 31 4 44 3 39 -4 -3 -6 1 -9 11 -7 10 2 20 4 23 4 2 1 -1 6 -8 13 -7 7 -8 17 -2 28 7 13 4 20 -14 30 -19 10 -29 9 -52 -3 -16 -8 -55 -20 -87 -27 -51 -10 -61 -10 -77 5 -15 13 -23 14 -39 5 -17 -9 -22 -8 -27 5 -3 8 -12 15 -20 15 -8 0 -14 5 -14 10 0 6 -23 9 -56 7 -41 -2 -59 -8 -66 -21 -7 -12 -17 -16 -33 -12 -13 3 -27 1 -31 -5 -11 -19 -104 -1 -124 24 -16 20 -20 20 -46 7 -16 -8 -32 -16 -36 -18 -5 -2 -8 2 -8 10 0 9 -15 13 -52 13 -49 0 -53 2 -51 22 2 15 -7 28 -27 40 -17 9 -31 24 -31 33 -3 43 -23 86 -44 94 -9 3 -15 14 -13 23 2 14 -3 18 -27 17 -16 -1 -43 2 -60 7 -16 4 -49 9 -72 11 -24 1 -43 6 -43 10 0 4 -9 8 -19 8 -11 0 -23 5 -27 12 -9 14 97 3 127 -13 13 -6 19 -6 19 1 0 5 -7 10 -15 10 -16 0 -29 24 -40 74 -5 23 -8 27 -15 15 -7 -10 -11 -6 -16 18 -7 36 -40 52 -115 57 -69 5 -78 45 -10 46 19 0 22 3 14 11 -6 6 -9 18 -6 25 4 11 -13 14 -90 14 -86 0 -95 -2 -100 -20 -3 -11 -10 -20 -16 -20 -6 0 -8 6 -5 14 4 11 -32 26 -66 26 -3 0 -2 -23 4 -51 7 -33 7 -53 0 -57 -17 -12 -10 -36 15 -49 32 -15 56 -60 42 -76 -15 -19 19 -54 59 -60 19 -3 44 -9 55 -13 16 -6 18 -5 8 7 -22 23 -14 32 22 26 21 -3 35 -2 35 4 0 16 43 6 48 -11 3 -8 1 -12 -3 -8 -4 4 -19 -2 -33 -12 -13 -11 -31 -20 -38 -20 -8 0 -14 -5 -14 -11 0 -8 -15 -10 -48 -5 -45 6 -50 4 -60 -18 -10 -23 -8 -26 28 -42 46 -20 47 -26 20 -64 -15 -21 -29 -29 -55 -30 -62 -3 -89 -2 -117 5 l-28 7 0 -60 c0 -52 3 -60 21 -65 13 -3 18 -10 14 -17 -7 -12 54 -8 101 5 12 4 25 0 33 -9 17 -20 6 -36 -25 -36 -19 0 -24 -5 -24 -25 0 -14 5 -25 11 -25 5 0 7 5 4 10 -3 6 3 10 14 10 11 0 25 -10 32 -21 6 -13 7 -19 1 -15 -6 3 -12 2 -14 -4 -2 -6 -19 -2 -42 9 -33 17 -41 18 -58 7 -11 -8 -29 -11 -40 -8 -21 5 -21 5 1 -17 28 -28 108 -64 122 -56 11 7 49 -22 49 -36 0 -8 -36 5 -106 38 -18 8 -41 12 -53 8 -12 -4 -21 -2 -21 4 0 6 -4 11 -9 11 -4 0 -11 -50 -14 -111 -3 -61 -8 -114 -11 -116 -13 -13 -249 -15 -307 -3 -49 11 -62 11 -69 1 -12 -20 -45 -8 -48 17 -2 12 -8 22 -13 22 -5 0 -9 6 -9 14 0 8 -8 17 -17 19 -16 4 -15 5 1 6 20 1 20 1 0 17 -16 13 -16 15 -1 10 28 -9 19 12 -10 22 l-28 10 30 2 c18 2 23 4 13 7 -10 2 -18 9 -18 14 0 5 -8 9 -17 9 -10 0 -45 13 -78 29 l-60 29 40 2 40 2 -40 12 c-37 11 -39 13 -20 24 l20 13 -20 -2 c-33 -2 -61 2 -47 8 20 8 13 23 -11 23 -15 0 -38 16 -62 43 l-38 42 27 3 c16 2 24 8 20 14 -5 7 0 9 14 6 25 -7 30 9 7 18 -24 10 -17 24 13 25 16 0 21 3 12 6 -8 4 -21 12 -28 20 -7 7 -24 13 -36 13 -13 0 -29 7 -36 15 -9 11 -10 15 -1 15 12 0 -23 58 -44 72 -6 5 -5 8 4 8 10 0 11 3 2 14 -12 15 -4 106 10 106 5 0 9 -21 9 -47 0 -78 22 -35 30 59 l7 83 3 -90 c2 -49 2 -99 2 -110 -2 -16 0 -17 8 -5 5 8 10 42 11 75 1 87 17 118 18 35 1 -36 6 -72 12 -80 7 -11 9 0 5 40 -4 38 -3 49 3 35 5 -11 11 -42 12 -70 2 -45 3 -46 6 -12 2 20 8 35 14 32 5 -4 9 11 9 32 1 51 17 24 29 -49 8 -47 9 -49 11 -18 2 19 4 44 5 55 1 11 3 40 5 65 2 26 6 -1 10 -65 5 -104 6 -107 14 -57 8 48 26 73 26 36 0 -14 3 -14 15 -4 13 10 15 9 15 -11 0 -19 2 -21 10 -9 8 12 10 10 10 -9 0 -53 12 -9 15 59 4 78 15 108 16 44 0 -21 6 -66 13 -99 l13 -60 8 70 8 70 13 -50 12 -50 1 48 c1 46 2 48 19 31 12 -13 16 -31 15 -65 -1 -27 1 -51 6 -53 4 -3 7 3 7 12 0 9 2 31 4 47 l3 30 7 -35 7 -35 2 38 c0 20 6 37 12 37 8 0 9 -15 4 -46 -4 -30 -3 -44 3 -40 6 3 13 -2 16 -11 2 -10 2 -1 -1 20 -6 42 16 84 27 52 3 -9 10 -17 15 -18 6 -1 20 -13 32 -27 17 -19 22 -21 23 -9 0 9 -7 22 -15 29 -9 7 -13 15 -10 18 3 4 -5 18 -19 32 -115 118 -126 133 -115 147 10 11 8 12 -5 7 -21 -8 -51 22 -53 53 -1 17 3 21 19 18 19 -4 20 -1 15 38 l-6 42 15 -44 c17 -55 26 -65 18 -20 -13 65 -23 83 -39 69 -8 -7 -15 -24 -15 -37 0 -23 -2 -24 -17 -12 -15 13 -16 11 -11 -13 3 -16 1 -28 -3 -28 -12 0 -11 43 1 75 l10 25 -540 0 c-405 -1 -540 -4 -540 -12 0 -9 -3 -9 -12 0 -7 7 -39 12 -75 12 l-63 0 0 -32z m197 5 c0 -15 0 -15 -21 -7 -22 8 -20 20 2 20 10 0 19 -6 19 -13z m33 1 c0 -8 -5 -12 -10 -9 -6 4 -8 11 -5 16 9 14 15 11 15 -7z m461 -16 l2 -23 4 23 c7 34 20 26 27 -15 9 -56 7 -93 -4 -93 -5 0 -10 8 -10 18 0 10 -11 33 -25 52 -28 38 -32 60 -10 60 8 0 16 -10 16 -22z m-73 -13 c-3 -3 -9 2 -12 12 -6 14 -5 15 5 6 7 -7 10 -15 7 -18z m33 -1 c5 -15 8 -29 5 -31 -2 -2 -8 10 -14 26 -13 38 -5 41 9 5z m3357 9 c2 -8 -6 -13 -22 -13 -26 0 -40 12 -29 24 11 11 46 2 51 -11z m-3868 -28 c-9 -11 -9 -15 -1 -15 7 0 9 -4 6 -10 -4 -6 -11 -5 -20 3 -14 13 -3 37 17 37 6 0 5 -7 -2 -15z m440 -15 c0 -5 -2 -10 -4 -10 -3 0 -8 5 -11 10 -3 6 -1 10 4 10 6 0 11 -4 11 -10z m3068 -14 c3 -12 -1 -17 -10 -14 -7 3 -15 13 -16 22 -3 12 1 17 10 14 7 -3 15 -13 16 -22z m-2876 -72 c3 -37 2 -40 -14 -30 -20 12 -23 32 -7 42 8 4 7 9 -2 15 -10 6 -11 9 -1 9 6 0 13 8 13 18 2 24 7 -2 11 -54z m165 44 c-3 -8 -6 -5 -6 6 -1 11 2 17 5 13 3 -3 4 -12 1 -19z m3777 14 c7 -12 -22 -45 -33 -37 -19 11 -13 45 8 45 11 0 22 -3 25 -8z m-4124 -27 c0 -8 -2 -15 -4 -15 -2 0 -6 7 -10 15 -3 8 -1 15 4 15 6 0 10 -7 10 -15z m3681 -1 c24 -21 14 -42 -17 -36 -25 4 -49 34 -37 46 11 11 36 6 54 -10z m-2466 -4 c3 -5 1 -10 -4 -10 -6 0 -11 5 -11 10 0 6 2 10 4 10 3 0 8 -4 11 -10z m-958 -87 c-2 -16 -4 -3 -4 27 0 30 2 43 4 28 2 -16 2 -40 0 -55z m1053 68 c0 -12 -20 -25 -27 -18 -7 7 6 27 18 27 5 0 9 -4 9 -9z m-1793 -30 c-6 -16 -17 -28 -26 -27 -9 1 -15 -5 -13 -11 1 -7 -5 -13 -13 -13 -11 0 -8 10 13 40 33 48 56 54 39 11z m686 -42 c-6 -6 -7 3 -4 23 4 28 6 29 9 9 2 -13 0 -27 -5 -32z m331 -4 c4 -30 3 -45 -3 -40 -9 9 -15 51 -12 84 2 25 8 7 15 -44z m-864 35 c-13 -8 -12 -10 4 -10 16 0 17 -5 12 -32 -4 -18 -9 -50 -13 -70 -3 -21 -9 -38 -12 -38 -4 0 -19 12 -34 28 -20 21 -26 36 -25 68 2 32 6 40 18 37 9 -2 22 3 29 11 8 9 19 16 25 16 6 0 4 -5 -4 -10z m3931 -12 c15 -5 35 -26 45 -46 40 -77 65 -106 115 -130 50 -25 75 -53 66 -76 -3 -7 -2 -19 3 -25 6 -10 13 -9 34 4 14 10 26 16 27 14 0 -2 3 -15 5 -29 2 -13 14 -34 26 -47 11 -12 18 -28 15 -36 -3 -9 2 -12 22 -9 14 2 34 -3 45 -10 17 -13 17 -17 4 -57 -14 -40 -16 -42 -31 -26 -15 15 -17 15 -17 1 0 -9 -4 -16 -10 -16 -5 0 -7 -7 -4 -15 4 -8 1 -15 -5 -15 -6 0 -11 -4 -11 -10 0 -5 9 -10 20 -10 15 0 20 7 20 27 0 20 3 24 11 16 8 -8 16 -6 30 8 10 10 26 19 34 19 11 0 13 8 8 31 -4 21 -1 34 7 39 16 10 80 1 97 -12 13 -10 22 5 41 67 4 17 23 39 40 50 34 22 37 42 6 38 -36 -5 -46 10 -29 43 8 16 15 35 15 42 0 14 36 17 45 3 3 -5 -5 -11 -17 -13 -24 -3 -38 -28 -15 -28 18 0 86 -52 87 -67 0 -6 -5 -13 -12 -15 -17 -6 -17 -96 0 -103 8 -3 32 -2 54 1 32 6 40 4 36 -7 -4 -12 -24 -21 -75 -35 -16 -4 -17 -44 -1 -44 6 0 20 8 30 17 15 13 21 14 31 4 9 -10 8 -15 -7 -27 -11 -8 -27 -14 -37 -14 -9 0 -19 -9 -22 -21 -3 -12 -10 -18 -16 -15 -6 4 -8 13 -4 21 6 18 -1 19 -26 3 -15 -9 -23 -9 -35 1 -9 8 -16 19 -16 26 0 14 -22 25 -51 25 -12 0 -19 7 -19 20 0 11 -6 20 -12 20 -23 0 -40 -17 -36 -36 2 -10 -1 -18 -7 -17 -5 1 -10 -12 -11 -28 -1 -26 2 -29 31 -29 41 0 64 -24 38 -39 -17 -11 -17 -12 1 -25 18 -14 18 -15 -3 -13 -13 1 -21 8 -21 19 0 16 -3 17 -22 6 -13 -6 -29 -13 -37 -14 -8 -2 -17 -8 -21 -15 -5 -6 -17 -9 -28 -7 -15 4 -19 2 -15 -8 6 -17 18 -18 43 -4 17 9 18 7 9 -22 -5 -20 -5 -36 2 -44 7 -9 5 -14 -10 -19 -11 -3 -29 -17 -39 -30 -18 -23 -20 -23 -62 -9 -31 11 -55 13 -84 7 -55 -12 -67 -8 -91 30 -11 17 -40 43 -65 56 -36 21 -56 24 -118 23 -53 -1 -80 -6 -93 -18 -10 -9 -22 -13 -28 -10 -9 6 -57 -18 -71 -35 -4 -5 -70 -39 -75 -39 -2 0 -10 15 -19 34 -17 35 -10 80 14 88 6 2 13 20 17 40 5 33 2 41 -28 71 -47 46 -139 80 -206 75 l-51 -4 5 35 c3 20 14 42 24 50 11 7 19 18 19 23 0 6 20 28 45 50 25 22 42 45 39 53 -5 12 23 28 42 24 5 -1 17 1 27 6 11 5 24 2 36 -9 10 -9 23 -16 30 -16 22 0 -22 52 -56 66 -18 8 -32 18 -30 22 1 5 -11 20 -27 35 -24 23 -27 29 -16 43 8 8 27 21 44 28 26 11 34 11 49 -2 9 -8 17 -24 17 -34 0 -29 19 -59 59 -94 28 -25 47 -33 94 -38 33 -3 65 -10 71 -16 13 -10 53 -3 73 13 9 6 15 4 19 -7 9 -24 19 -20 37 19 l17 35 -30 0 c-23 0 -30 5 -30 19 0 11 -5 23 -10 26 -6 4 -8 11 -5 16 4 5 -3 9 -14 9 -11 0 -23 5 -26 10 -12 20 -35 10 -35 -15 0 -21 -5 -25 -30 -25 -33 0 -41 23 -13 38 15 9 15 12 0 51 l-17 42 52 -6 c29 -4 65 -11 79 -17z m-547 -23 c21 -4 26 -9 17 -14 -18 -11 -81 9 -81 26 0 9 5 11 18 4 9 -6 30 -13 46 -16z m-3164 11 c0 -2 -3 -12 -6 -20 -5 -13 -9 -14 -20 -5 -16 13 -9 29 12 29 8 0 14 -2 14 -4z m3044 -15 c3 -5 -3 -11 -14 -14 -20 -5 -26 3 -13 16 9 10 21 9 27 -2z m-3054 -60 c5 -10 6 -22 2 -27 -4 -5 3 0 16 10 12 11 22 15 22 11 0 -5 7 0 15 11 13 17 13 14 0 -23 -15 -46 -11 -54 11 -25 13 16 14 16 8 0 -4 -12 0 -20 12 -24 43 -13 64 -29 60 -41 -5 -12 6 -17 27 -14 19 3 16 -29 -8 -82 -29 -67 -33 -102 -4 -42 l19 40 -5 -45 -4 -45 12 47 c11 43 41 88 50 77 3 -2 -2 -47 -9 -99 -14 -96 -11 -166 7 -155 5 4 9 -6 9 -21 0 -22 3 -24 14 -15 11 10 16 8 21 -8 3 -12 11 -21 16 -21 6 0 7 -4 4 -10 -3 -5 -1 -10 5 -10 7 0 10 -6 7 -14 -3 -7 0 -13 6 -13 42 1 49 -3 44 -26 -4 -12 -2 -28 2 -36 7 -11 14 -4 30 27 12 23 23 42 26 42 6 0 -10 -40 -31 -81 -8 -17 -13 -33 -10 -36 2 -3 12 9 21 26 21 41 29 40 11 -2 -12 -29 -11 -35 4 -55 15 -18 19 -19 24 -7 3 9 0 15 -8 15 -18 0 -11 30 19 82 l22 38 12 -24 c11 -19 11 -31 0 -62 -7 -22 -12 -47 -10 -56 1 -9 -6 -18 -16 -21 -10 -3 8 -6 40 -7 31 -1 60 -3 65 -4 4 -1 25 -5 46 -10 63 -12 155 -64 206 -116 90 -89 138 -224 160 -445 16 -165 48 -374 66 -435 23 -79 59 -145 106 -196 51 -55 92 -80 176 -109 l67 -23 31 30 c22 21 34 26 39 18 8 -14 -231 -260 -252 -260 -23 0 -14 13 55 84 37 39 57 62 45 52 -20 -16 -26 -17 -55 -6 -59 24 -167 100 -208 148 -100 117 -139 243 -175 559 -36 314 -58 399 -126 484 -38 48 -134 96 -210 104 -158 19 -321 -71 -387 -213 -24 -51 -27 -69 -27 -167 0 -102 2 -114 29 -162 35 -64 108 -138 161 -165 58 -29 75 -47 75 -79 0 -20 -8 -34 -25 -45 -25 -16 -28 -16 -78 7 -186 87 -288 247 -289 454 0 151 50 266 156 361 28 26 50 51 48 56 -1 5 2 7 7 4 14 -9 81 25 74 37 -3 6 -1 7 4 4 6 -4 44 2 84 13 67 18 69 20 24 15 -27 -3 -74 -8 -102 -11 -39 -4 -53 -10 -53 -21 0 -12 -3 -13 -15 -3 -20 17 -176 3 -230 -20 -11 -5 -77 -11 -147 -14 l-128 -4 0 26 c1 15 6 51 13 80 10 41 15 50 25 40 6 -6 12 -10 13 -7 5 28 4 47 -3 43 -4 -3 -8 2 -8 11 0 9 5 13 10 10 6 -3 10 2 10 12 0 11 6 25 13 32 10 11 10 13 0 7 -9 -5 -13 1 -13 20 0 27 1 27 15 8 19 -25 19 -15 0 30 -19 46 -13 46 15 0 29 -46 37 -37 11 12 -25 46 -26 54 -5 80 8 10 12 13 8 5 -5 -10 -3 -12 5 -7 8 6 9 12 2 20 -6 7 -8 16 -5 19 4 3 8 23 9 44 2 21 12 68 22 105 18 65 20 67 36 48 9 -11 18 -35 18 -53 1 -17 3 -24 6 -14 2 9 13 17 24 17 28 0 35 27 17 64 -11 21 -16 60 -17 119 l0 88 29 -21 c17 -12 34 -29 40 -39z m26 34 c-3 -32 -14 -42 -22 -21 -3 9 -1 23 6 31 17 20 19 19 16 -10z m-322 0 c3 -8 1 -15 -4 -15 -6 0 -10 7 -10 15 0 8 2 15 4 15 2 0 6 -7 10 -15z m658 -48 c-2 -5 -10 4 -18 18 -16 31 -19 48 -4 25 8 -13 10 -12 11 5 1 13 4 10 8 -10 4 -16 6 -34 3 -38z m1367 9 c6 -7 12 -30 14 -51 l2 -38 -77 -2 c-43 -1 -78 2 -78 6 0 13 47 22 62 13 10 -6 9 -3 -1 9 -12 15 -12 19 4 31 14 10 15 15 5 21 -11 7 -9 10 6 16 30 12 51 10 63 -5z m2291 -6 c-8 -5 -22 -9 -30 -9 -10 0 -8 3 5 9 27 12 43 12 25 0z m-70 -15 c0 -8 -4 -15 -10 -15 -5 0 -10 7 -10 15 0 8 5 15 10 15 6 0 10 -7 10 -15z m-4227 -41 c-4 -12 -8 -11 -20 6 -18 26 -6 51 13 26 7 -10 10 -24 7 -32z m40 -31 c-5 -46 -20 -54 -47 -27 -18 17 -22 39 -6 29 6 -3 10 -1 10 5 0 6 4 8 10 5 6 -3 7 1 4 9 -4 10 -1 16 7 16 10 0 10 3 1 12 -7 7 -12 17 -12 22 0 6 8 2 19 -9 14 -15 17 -30 14 -62z m4564 41 c-3 -4 -14 -3 -24 0 -15 6 -15 8 -3 16 16 10 39 -4 27 -16z m-4424 -24 c-3 -10 -11 -24 -18 -30 -13 -11 -13 4 1 48 6 21 23 4 17 -18z m1915 -46 c-9 -9 -21 -13 -27 -9 -16 10 -3 25 22 25 20 0 20 -1 5 -16z m-2095 -107 c-9 -14 -32 14 -38 46 -4 18 -9 41 -11 52 -3 11 9 -5 25 -35 16 -30 27 -59 24 -63z m4827 3 c0 -38 -4 -50 -15 -50 -8 0 -15 7 -15 16 0 9 5 13 13 9 6 -4 4 0 -5 8 -10 8 -18 24 -18 35 0 11 8 23 18 25 9 3 18 5 20 6 1 0 2 -21 2 -49z m-4871 0 c0 -10 -3 -8 -9 5 -12 27 -12 43 0 25 5 -8 9 -22 9 -30z m-72 -36 c-3 -3 -12 -4 -19 -1 -8 3 -5 6 6 6 11 1 17 -2 13 -5z m1816 -13 c18 -18 2 -22 -34 -10 -52 18 -61 33 -15 26 22 -4 44 -11 49 -16z m1005 3 c-12 -13 -25 -14 -59 -8 l-44 8 35 7 c19 3 46 7 60 8 22 1 23 0 8 -15z m-932 -21 c-8 -8 -36 5 -36 17 0 7 6 7 21 0 11 -7 18 -14 15 -17z m-1908 -10 c-10 -2 -26 -2 -35 0 -10 3 -2 5 17 5 19 0 27 -2 18 -5z m3577 -53 c-3 -5 -11 -10 -16 -10 -6 0 -7 5 -4 10 3 6 11 10 16 10 6 0 7 -4 4 -10z m1243 -97 c-2 -10 -11 -19 -20 -21 -12 -2 -15 2 -11 17 7 25 36 28 31 4z m-3 -43 c3 -5 1 -10 -4 -10 -6 0 -11 5 -11 10 0 6 2 10 4 10 3 0 8 -4 11 -10z m-160 -30 c-3 -5 -11 -10 -16 -10 -6 0 -7 5 -4 10 3 6 11 10 16 10 6 0 7 -4 4 -10z m-2750 -10 c3 -5 1 -10 -4 -10 -6 0 -11 5 -11 10 0 6 2 10 4 10 3 0 8 -4 11 -10z m900 -40 c-3 -5 -13 -10 -21 -10 -8 0 -14 5 -14 10 0 6 9 10 21 10 11 0 17 -4 14 -10z m744 -30 c-13 -16 -24 -28 -27 -26 -5 6 31 55 41 56 4 0 -2 -13 -14 -30z m-259 -36 c0 -30 -4 -43 -11 -38 -6 3 -22 1 -35 -7 -26 -13 -48 -4 -24 11 9 6 -11 7 -55 4 -89 -8 -139 4 -143 34 -3 17 2 22 20 22 33 0 55 -15 33 -24 -9 -3 -13 -11 -10 -16 4 -7 16 -1 31 15 17 18 30 25 42 20 14 -5 11 -10 -18 -26 l-35 -19 44 3 c27 1 46 7 49 16 3 9 0 11 -8 6 -8 -5 -11 -3 -8 6 3 8 11 14 19 15 8 0 21 3 29 6 16 7 48 15 68 17 8 1 12 -14 12 -45z m-2364 11 c-2 -7 2 -16 10 -19 8 -3 14 -17 14 -31 0 -20 -5 -25 -24 -25 -19 0 -25 6 -28 30 -3 17 -1 30 4 30 4 0 7 3 7 8 -3 20 2 32 12 27 6 -4 8 -13 5 -20z m1874 3 c0 -11 -47 -11 -54 0 -3 5 8 9 24 9 17 0 30 -4 30 -9z m85 -8 c15 -6 7 -9 -30 -8 -39 0 -45 2 -25 8 32 10 31 10 55 0z m968 -87 c-3 -7 -9 -13 -13 -13 -5 0 -10 -6 -13 -12 -2 -7 -3 -5 -1 5 1 9 -5 21 -14 26 -15 8 -14 11 8 19 27 10 42 -1 33 -25z m-5023 7 c12 -8 11 -10 -7 -10 -13 0 -23 5 -23 10 0 13 11 13 30 0z m4213 3 c-7 -2 -19 -2 -25 0 -7 3 -2 5 12 5 14 0 19 -2 13 -5z m-765 -70 l-3 -58 -303 0 -302 0 0 -147 c0 -135 -2 -150 -20 -168 -24 -24 -47 -25 -72 -3 -16 15 -18 35 -18 225 l0 208 360 0 361 0 -3 -57z m639 51 c-3 -3 -12 -4 -19 -1 -8 3 -5 6 6 6 11 1 17 -2 13 -5z m-4092 -14 c13 -6 15 -9 5 -9 -8 0 -22 4 -30 9 -18 12 -2 12 25 0z m1185 -25 c0 -24 -5 -35 -15 -35 -18 0 -18 -1 -4 39 14 40 19 39 19 -4z m107 -72 c-3 -10 -5 -4 -5 12 0 17 2 24 5 18 2 -7 2 -21 0 -30z m3712 -29 c2 -2 -3 -4 -11 -4 -9 0 -26 9 -39 20 l-24 21 35 -17 c19 -9 37 -18 39 -20z m-5018 -31 c1 -34 2 -35 9 -13 6 20 8 15 9 -25 1 -47 -1 -50 -25 -51 -22 -2 -25 1 -20 20 3 11 6 40 6 64 0 52 20 57 21 5z m102 -105 c8 -5 7 -8 -4 -8 -22 0 -27 17 -20 65 l6 40 3 -45 c2 -24 9 -48 15 -52z m-266 -80 c-3 -8 -6 -5 -6 6 -1 11 2 17 5 13 3 -3 4 -12 1 -19z m43 -3 c10 -13 9 -15 -9 -15 -12 0 -21 6 -21 15 0 8 4 15 9 15 5 0 14 -7 21 -15z m-270 -5 c0 -5 -2 -10 -4 -10 -3 0 -8 5 -11 10 -3 6 -1 10 4 10 6 0 11 -4 11 -10z m445 -40 c3 -5 -1 -10 -10 -10 -9 0 -13 5 -10 10 3 6 8 10 10 10 2 0 7 -4 10 -10z m-482 -7 c-7 -2 -19 -2 -25 0 -7 3 -2 5 12 5 14 0 19 -2 13 -5z m192 -18 c22 -3 54 -10 70 -15 24 -8 19 -9 -27 -5 -53 5 -77 -5 -45 -18 7 -3 4 -6 -6 -6 -11 -1 -21 8 -24 19 -3 11 -9 20 -14 20 -15 0 -49 -34 -50 -50 -1 -8 -4 -4 -8 10 -4 14 -3 28 2 32 6 3 -10 11 -34 16 -41 10 -39 10 26 6 39 -2 88 -7 110 -9z m-235 -30 c8 5 7 0 -2 -14 -12 -19 -13 -19 -20 -3 -10 25 -9 39 1 23 5 -7 14 -10 21 -6z m68 -32 c-6 -7 -16 -13 -22 -12 -7 0 -6 2 2 6 6 2 12 9 12 14 0 6 -4 7 -10 4 -6 -3 -10 4 -10 16 0 22 0 22 19 3 13 -13 15 -23 9 -31z m3556 32 c144 -38 262 -132 325 -260 l33 -67 -50 -50 -50 -51 -16 56 c-34 117 -129 211 -249 248 -94 29 -177 23 -274 -20 -82 -36 -104 -32 -121 18 -14 40 3 62 70 91 114 50 228 62 332 35z m-3304 -48 c0 -20 -24 1 -25 23 -2 21 -1 22 12 5 7 -11 13 -23 13 -28z m-100 13 c0 -5 -4 -10 -10 -10 -5 0 -10 5 -10 10 0 6 5 10 10 10 6 0 10 -4 10 -10z m28 -7 c-2 -10 4 -18 12 -20 8 -1 37 -5 63 -8 27 -4 46 -9 43 -12 -8 -8 -208 17 -226 28 -15 10 42 5 84 -8 12 -3 16 -1 12 6 -4 6 -4 16 -1 21 10 15 16 12 13 -7z m141 -25 c-1 -18 -3 -25 -6 -15 -2 9 -9 17 -14 17 -5 0 -9 7 -9 15 0 8 7 15 15 15 10 0 15 -10 14 -32z m291 18 c0 -2 -7 -6 -15 -10 -8 -3 -15 -1 -15 4 0 6 7 10 15 10 8 0 15 -2 15 -4z m-658 -93 c-6 -2 -10 -9 -6 -14 3 -5 0 -9 -5 -9 -6 0 -11 7 -11 15 0 8 8 15 18 14 10 0 12 -3 4 -6z m565 -25 c-3 -7 -5 -2 -5 12 0 14 2 19 5 13 2 -7 2 -19 0 -25z m-477 12 c0 -5 -9 -10 -20 -10 -11 0 -20 5 -20 10 0 6 9 10 20 10 11 0 20 -4 20 -10z m-128 -40 c3 -17 1 -33 -4 -36 -4 -3 -8 11 -8 30 0 44 6 47 12 6z m88 5 c0 -8 -4 -15 -10 -15 -5 0 -7 7 -4 15 4 8 8 15 10 15 2 0 4 -7 4 -15z m54 -1 c5 -14 4 -15 -9 -4 -17 14 -19 20 -6 20 5 0 12 -7 15 -16z m23 -51 c-3 -10 -5 -2 -5 17 0 19 2 27 5 18 2 -10 2 -26 0 -35z m84 24 c-10 -9 -11 -8 -5 6 3 10 9 15 12 12 3 -3 0 -11 -7 -18z m289 13 c0 -5 -5 -10 -11 -10 -5 0 -7 5 -4 10 3 6 8 10 11 10 2 0 4 -4 4 -10z m-450 -20 c0 -5 -5 -10 -11 -10 -5 0 -7 5 -4 10 3 6 8 10 11 10 2 0 4 -4 4 -10z m137 -27 c-3 -10 -5 -4 -5 12 0 17 2 24 5 18 2 -7 2 -21 0 -30z m273 3 c0 -8 -5 -18 -11 -21 -6 -4 -8 -13 -5 -21 3 -8 1 -14 -4 -14 -6 0 -10 16 -10 35 0 24 5 35 15 35 8 0 15 -6 15 -14z m3505 -126 c-60 -61 -113 -110 -117 -110 -24 0 3 36 99 132 72 72 111 104 117 98 7 -7 -26 -47 -99 -120z m-1120 66 c14 -20 14 -29 4 -48 -21 -41 -118 -148 -298 -330 l-175 -178 367 0 367 0 0 -55 0 -55 -496 0 -495 0 274 273 c151 149 298 305 327 345 44 60 57 72 81 72 19 0 34 -8 44 -24z m-2390 -25 c-3 -6 3 -14 12 -20 15 -8 15 -10 3 -11 -11 0 -16 -12 -17 -40 -2 -49 -12 -68 -24 -49 -5 8 -6 34 -3 59 7 59 11 70 24 70 6 0 9 -4 5 -9z m112 -26 c0 -8 -4 -12 -9 -9 -5 3 -6 10 -3 15 9 13 12 11 12 -6z m-394 -2 c-7 -2 -21 -2 -30 0 -10 3 -4 5 12 5 17 0 24 -2 18 -5z m364 -9 c-3 -3 -12 -4 -19 -1 -8 3 -5 6 6 6 11 1 17 -2 13 -5z m-7 -24 c8 -5 11 -10 5 -10 -5 0 -17 5 -25 10 -8 5 -10 10 -5 10 6 0 17 -5 25 -10z m40 -20 c0 -5 -5 -10 -11 -10 -5 0 -7 5 -4 10 3 6 8 10 11 10 2 0 4 -4 4 -10z m-50 -4 c0 -2 -11 -6 -25 -8 -14 -3 -25 -1 -25 3 0 5 11 9 25 9 14 0 25 -2 25 -4z m50 -42 c0 -22 -16 -17 -17 6 -1 11 2 18 8 15 5 -4 9 -13 9 -21z m3007 -60 l16 -26 14 26 c14 27 43 36 43 14 0 -7 -9 -24 -20 -38 -11 -14 -20 -40 -20 -58 0 -44 -31 -41 -37 3 -3 16 -13 44 -24 61 -23 38 -24 44 -4 44 8 0 22 -12 32 -26z m213 11 c0 -10 -11 -15 -35 -15 -44 0 -46 -18 -2 -22 40 -4 42 -21 3 -28 -40 -7 -39 -24 2 -28 20 -2 32 -9 32 -18 0 -10 -13 -14 -50 -14 l-50 0 0 70 0 70 50 0 c38 0 50 -4 50 -15z m144 -46 c14 -33 26 -65 26 -70 0 -15 -30 -10 -36 6 -4 8 -18 15 -34 15 -16 0 -30 -7 -34 -15 -5 -13 -36 -22 -36 -11 0 20 62 136 73 136 8 0 26 -27 41 -61z m157 51 c22 -12 25 -41 7 -70 -10 -15 -10 -22 0 -32 16 -16 15 -28 -3 -28 -8 0 -20 9 -27 20 -7 11 -18 20 -25 20 -7 0 -13 -9 -13 -20 0 -11 -7 -20 -15 -20 -12 0 -15 14 -15 70 l0 70 36 0 c19 0 44 -5 55 -10z m133 4 c9 -3 16 -13 16 -21 0 -11 -7 -13 -30 -8 -40 9 -38 -6 3 -25 42 -20 45 -60 5 -74 -38 -13 -86 8 -68 29 10 12 16 12 26 4 8 -6 22 -8 31 -4 15 5 12 10 -17 23 -69 33 -37 103 34 76z m-4127 -191 c-3 -10 -5 -2 -5 17 0 19 2 27 5 18 2 -10 2 -26 0 -35z m460 -30 c-3 -10 -5 -2 -5 17 0 19 2 27 5 18 2 -10 2 -26 0 -35z m30 -5 c-3 -7 -5 -2 -5 12 0 14 2 19 5 13 2 -7 2 -19 0 -25z m2983 -58 c0 -56 -3 -70 -15 -70 -12 0 -15 14 -15 63 0 35 3 67 7 70 17 18 23 1 23 -63z m110 23 l25 -37 3 43 c5 68 27 45 30 -32 3 -80 -10 -87 -57 -29 l-30 37 -1 -37 c0 -27 -4 -38 -15 -38 -12 0 -15 14 -15 63 0 90 15 97 60 30z m210 -23 c0 -56 -3 -70 -15 -70 -12 0 -15 14 -15 63 0 35 3 67 7 70 17 18 23 1 23 -63z m115 20 l25 -34 0 43 c0 30 4 41 13 39 7 -3 13 -29 15 -71 3 -80 -7 -85 -55 -30 l-32 38 -1 -37 c0 -27 -4 -38 -15 -38 -12 0 -15 14 -15 63 0 35 3 67 6 70 10 10 31 -5 59 -43z m207 20 c41 -51 4 -110 -69 -110 l-43 0 0 63 c0 35 3 67 8 71 14 15 86 -2 104 -24z m88 -40 c0 -56 -3 -70 -15 -70 -12 0 -15 14 -15 63 0 35 3 67 7 70 17 18 23 1 23 -63z m151 5 c35 -77 34 -75 9 -75 -11 0 -20 7 -20 15 0 10 -10 15 -29 15 -16 0 -31 -6 -35 -15 -5 -14 -36 -22 -36 -10 0 18 61 135 70 135 6 0 24 -29 41 -65z m-4207 36 c18 -7 18 -8 3 -14 -10 -4 -27 -3 -40 2 -12 4 -28 6 -34 4 -7 -3 -13 0 -13 6 0 12 55 14 84 2z m236 -21 c20 -6 14 -8 -27 -9 -29 -1 -53 3 -53 9 0 12 44 12 80 0z m-240 -20 c0 -5 -5 -10 -11 -10 -5 0 -7 5 -4 10 3 6 8 10 11 10 2 0 4 -4 4 -10z m-20 -13 c8 -3 22 -8 30 -10 8 -3 -9 -6 -37 -6 -37 -1 -53 3 -53 12 0 13 31 15 60 4z m275 -29 c7 -8 4 -9 -8 -4 -10 3 -32 6 -48 6 -16 0 -29 5 -29 11 0 14 70 3 85 -13z m-118 -20 c-3 -8 -6 -5 -6 6 -1 11 2 17 5 13 3 -3 4 -12 1 -19z m210 -55 c-3 -10 -5 -2 -5 17 0 19 2 27 5 18 2 -10 2 -26 0 -35z m-30 -20 c-3 -10 -5 -2 -5 17 0 19 2 27 5 18 2 -10 2 -26 0 -35z m-337 17 c0 -5 -6 -10 -14 -10 -8 0 -18 5 -21 10 -3 6 3 10 14 10 12 0 21 -4 21 -10z m-123 -152 c-2 -29 -3 -6 -3 52 0 58 1 81 3 53 2 -29 2 -77 0 -105z m52 65 c-1 -49 -4 -126 -9 -173 -7 -76 -7 -69 -7 70 0 85 -1 160 -3 165 -4 16 -1 25 10 25 6 0 10 -35 9 -87z m272 73 c5 3 9 0 9 -6 0 -15 -23 -7 -26 8 -1 7 0 8 3 2 2 -5 9 -8 14 -4z m69 0 c0 -9 -40 -13 -46 -5 -3 5 6 9 20 9 14 0 26 -2 26 -4z m-303 -12 c-3 -3 -12 -4 -19 -1 -8 3 -5 6 6 6 11 1 17 -2 13 -5z m193 -15 c0 -11 7 -27 15 -35 8 -8 12 -21 9 -29 -7 -18 -48 -20 -41 -2 2 6 0 25 -4 41 -5 16 -6 33 -3 37 10 16 24 9 24 -12z m214 6 c-4 -8 -2 -15 2 -15 5 0 10 -21 11 -47 3 -61 -13 -43 -22 25 -5 34 -3 52 4 52 6 0 8 -7 5 -15z m-357 -1 c-3 -3 -12 -4 -19 -1 -8 3 -5 6 6 6 11 1 17 -2 13 -5z m-29 -21 c-10 -2 -26 -2 -35 0 -10 3 -2 5 17 5 19 0 27 -2 18 -5z m349 -110 c-2 -21 -4 -6 -4 32 0 39 2 55 4 38 2 -18 2 -50 0 -70z m-321 68 c0 -15 -7 -18 -33 -16 -18 1 -36 5 -39 8 -13 12 9 27 39 27 25 0 33 -4 33 -19z m250 -108 c1 -46 -1 -53 -18 -53 -14 0 -18 -6 -16 -22 2 -11 -3 -23 -9 -25 -7 -3 -13 2 -13 11 0 9 -6 16 -14 16 -7 0 -19 7 -26 15 -9 10 -9 15 -1 15 6 0 11 -4 11 -10 0 -5 9 -10 20 -10 11 0 20 5 20 10 0 6 -4 10 -10 10 -17 0 -55 43 -42 48 16 5 15 33 0 30 -7 -2 -12 3 -10 10 1 6 -5 12 -13 12 -8 0 -15 4 -15 9 0 16 73 17 105 1 27 -13 30 -19 31 -67z m-146 67 c0 -5 -7 -10 -15 -10 -8 0 -15 5 -15 10 0 6 7 10 15 10 8 0 15 -4 15 -10z m264 -40 c-6 -6 -14 1 -22 22 l-12 32 22 -22 c15 -14 19 -25 12 -32z m-365 26 c-2 -2 -21 -9 -41 -14 -31 -8 -38 -8 -38 4 0 10 12 14 42 14 23 0 39 -2 37 -4z m101 -33 c0 -14 -3 -23 -7 -19 -10 10 -11 46 -1 46 4 0 8 -12 8 -27z m-100 -9 c0 -2 -19 -4 -42 -3 -35 1 -38 2 -18 8 23 7 60 4 60 -5z m1940 -14 c16 -10 11 -13 -35 -23 -15 -3 -13 -5 8 -6 35 -1 38 -31 2 -31 -18 0 -23 -4 -19 -15 4 -9 0 -15 -10 -15 -12 0 -16 10 -16 43 0 24 3 47 7 50 9 10 46 8 63 -3z m88 -6 c17 -12 20 -19 12 -34 -5 -10 -7 -26 -4 -34 8 -22 -15 -20 -32 2 -13 16 -13 16 -14 0 0 -10 -7 -18 -15 -18 -11 0 -15 11 -15 43 0 24 3 47 7 50 11 12 37 8 61 -9z m116 -3 c23 -26 17 -63 -14 -78 -52 -26 -96 47 -48 81 29 21 41 20 62 -3z m104 0 c19 29 32 14 32 -37 0 -32 -4 -44 -15 -44 -9 0 -15 9 -15 23 0 18 -2 19 -10 7 -9 -13 -11 -13 -20 0 -8 12 -10 11 -10 -7 0 -14 -6 -23 -15 -23 -11 0 -15 11 -15 43 0 54 8 63 35 37 21 -19 21 -19 33 1z m153 9 c23 -13 24 -28 2 -52 -15 -17 -15 -18 0 -18 10 0 17 -4 17 -10 0 -5 -18 -10 -40 -10 -46 0 -51 11 -15 34 30 20 33 40 5 31 -14 -4 -20 -2 -20 8 0 13 10 22 28 26 2 1 12 -4 23 -9z m97 -7 c2 -8 -6 -14 -20 -14 -22 -2 -22 -2 -1 -6 24 -5 35 -25 26 -49 -6 -17 -70 -16 -65 1 2 6 12 9 22 7 11 -2 20 2 20 7 0 6 -9 11 -20 11 -14 0 -20 7 -20 23 0 13 3 27 7 31 11 10 46 3 51 -11z m101 0 c9 -17 10 -17 28 0 28 25 36 9 13 -23 -11 -16 -20 -35 -20 -44 0 -9 -4 -16 -10 -16 -5 0 -10 8 -10 18 0 10 -7 27 -15 38 -17 22 -19 44 -5 44 5 0 13 -8 19 -17z m149 0 c2 -8 -7 -14 -25 -14 -23 -1 -24 -2 -5 -6 12 -2 22 -11 22 -18 0 -7 -10 -16 -22 -18 -20 -4 -19 -4 5 -6 43 -2 32 -21 -13 -21 l-40 0 0 43 c0 24 3 47 7 51 11 11 66 2 71 -11z m92 -29 c24 -56 24 -54 5 -54 -8 0 -15 5 -15 10 0 6 -9 10 -20 10 -11 0 -20 -4 -20 -10 0 -5 -7 -10 -15 -10 -8 0 -15 2 -15 4 0 14 43 96 50 96 5 0 18 -21 30 -46z m94 36 c27 -10 36 -43 16 -55 -8 -5 -7 -11 1 -21 17 -21 -9 -19 -33 3 -17 15 -18 15 -18 0 0 -10 -4 -17 -10 -17 -5 0 -10 23 -10 50 0 54 6 59 54 40z m90 4 c25 -10 20 -33 -6 -27 -21 4 -21 4 2 -9 14 -7 25 -22 25 -33 0 -16 -7 -20 -32 -20 -18 0 -32 5 -30 10 1 6 11 9 22 8 18 -2 18 -1 -2 9 -29 14 -36 34 -17 53 18 17 17 17 38 9z m166 -9 c0 -8 -7 -15 -15 -15 -10 0 -15 -11 -15 -35 0 -19 -4 -35 -10 -35 -10 0 -12 8 -13 48 0 12 -6 22 -13 22 -8 0 -14 7 -14 15 0 11 11 15 40 15 29 0 40 -4 40 -15z m100 -5 c11 -11 20 -27 20 -35 0 -17 -39 -55 -57 -55 -18 0 -53 37 -53 55 0 8 9 24 20 35 11 11 27 20 35 20 8 0 24 -9 35 -20z m108 -33 c2 -37 0 -47 -12 -47 -12 0 -16 12 -16 51 0 66 24 62 28 -4z m84 24 c6 39 23 24 26 -23 3 -54 -14 -65 -41 -25 l-16 22 0 -22 c-1 -14 -7 -23 -16 -23 -11 0 -15 11 -15 43 0 56 10 65 37 33 20 -24 22 -24 25 -5z m126 12 c2 -8 -7 -14 -25 -14 -23 -1 -24 -2 -5 -6 27 -5 29 -33 2 -33 -11 0 -20 -7 -20 -15 0 -8 -7 -15 -15 -15 -11 0 -15 11 -15 43 0 24 3 47 7 51 11 11 66 2 71 -11z m42 -33 c0 -38 -4 -50 -15 -50 -11 0 -15 11 -15 43 0 24 3 47 7 50 16 17 23 3 23 -43z m65 23 l25 -28 0 28 c0 15 5 27 10 27 6 0 10 -25 10 -55 0 -30 -2 -55 -5 -55 -2 0 -16 12 -30 27 -24 27 -25 27 -25 5 0 -13 -6 -22 -15 -22 -11 0 -15 11 -15 43 0 38 5 57 16 57 2 0 15 -12 29 -27z m95 -34 c0 -38 -4 -49 -16 -49 -12 0 -14 10 -10 53 3 28 5 53 5 55 1 2 6 0 11 -3 6 -3 10 -28 10 -56z m100 46 c0 -8 -7 -15 -15 -15 -11 0 -15 -11 -15 -41 0 -28 -4 -39 -12 -37 -8 3 -12 19 -10 41 3 28 0 37 -12 37 -17 0 -21 12 -9 23 3 4 21 7 40 7 23 0 33 -5 33 -15z m42 -4 c11 -18 12 -18 29 3 23 28 36 13 15 -18 -9 -14 -16 -34 -16 -46 0 -11 -7 -20 -15 -20 -9 0 -15 9 -15 23 0 12 -7 31 -15 41 -8 11 -15 23 -15 28 0 15 20 8 32 -11z m-3948 0 c3 -5 -3 -11 -13 -14 -25 -6 -71 3 -71 14 0 12 77 12 84 0z m313 -13 c-3 -8 -6 -5 -6 6 -1 11 2 17 5 13 3 -3 4 -12 1 -19z m20 -20 c-3 -8 -6 -5 -6 6 -1 11 2 17 5 13 3 -3 4 -12 1 -19z m73 -26 c0 -4 -9 -8 -20 -9 -11 -1 -18 2 -15 8 7 11 35 12 35 1z m-73 -24 c-3 -8 -6 -5 -6 6 -1 11 2 17 5 13 3 -3 4 -12 1 -19z m147 8 c-3 -7 3 -16 12 -20 23 -9 30 0 13 20 -11 14 -9 15 17 12 22 -2 30 -9 32 -27 2 -15 0 -21 -7 -16 -6 3 -9 10 -6 15 3 5 1 11 -5 15 -16 10 -12 -22 6 -39 8 -9 14 -24 12 -34 -3 -14 -13 -17 -53 -15 -28 2 -51 7 -53 13 -7 21 -19 9 -15 -15 5 -22 9 -24 57 -22 40 2 51 -1 51 -13 0 -9 -6 -13 -15 -11 -8 2 -33 5 -54 6 -23 1 -44 8 -51 18 -11 15 -13 15 -29 -1 -17 -16 -18 -16 -11 7 5 15 4 21 -3 17 -12 -7 -29 61 -18 72 4 3 23 5 42 3 33 -2 47 12 22 22 -7 3 4 6 24 6 28 1 36 -3 32 -13z m3500 -42 c9 -3 16 -14 16 -24 0 -11 9 -20 23 -23 13 -3 8 -5 -15 -6 -21 0 -38 4 -38 9 0 6 -6 10 -14 10 -7 0 -19 6 -25 14 -10 12 -8 15 11 19 13 2 24 5 25 6 1 0 8 -2 17 -5z m53 -10 c-3 -3 -12 -4 -19 -1 -8 3 -5 6 6 6 11 1 17 -2 13 -5z m1053 -3 c0 -9 -41 -23 -49 -16 -3 4 28 20 47 24 1 1 2 -3 2 -8z m-4840 -41 c0 -13 -11 -13 -30 0 -12 8 -11 10 8 10 12 0 22 -4 22 -10z m-60 -24 c0 -8 -8 -20 -17 -27 -16 -13 -17 -12 -4 3 7 10 11 25 7 33 -3 9 -2 13 4 10 6 -3 10 -12 10 -19z m548 4 c15 -1 15 -2 -1 -11 -20 -12 -60 -2 -51 12 3 6 13 8 21 5 8 -3 22 -6 31 -6z m3222 -10 c0 -5 -5 -10 -11 -10 -5 0 -7 5 -4 10 3 6 8 10 11 10 2 0 4 -4 4 -10z m163 -10 c5 -4 -3 -5 -17 -3 -15 3 -29 10 -32 15 -7 11 36 1 49 -12z m-83 -16 c0 -6 -14 -10 -30 -9 -17 1 -33 -2 -36 -7 -3 -4 -17 -8 -32 -7 -25 0 -24 2 13 19 44 20 85 22 85 4z m-4240 -4 c0 -5 -4 -10 -10 -10 -5 0 -10 5 -10 10 0 6 5 10 10 10 6 0 10 -4 10 -10z m923 -3 c3 -8 1 -20 -4 -28 -6 -10 -9 -7 -9 14 0 29 5 35 13 14z m-743 -17 c0 -5 -9 -6 -20 -3 -11 3 -17 9 -15 14 7 10 35 1 35 -11z m1080 0 c0 -5 -4 -10 -10 -10 -5 0 -10 5 -10 10 0 6 5 10 10 10 6 0 10 -4 10 -10z m-648 -30 c-6 -16 -11 -20 -16 -11 -4 6 -2 19 5 27 16 20 21 12 11 -16z m507 -13 c0 -21 -1 -21 -9 -2 l-9 20 -1 -20 c-1 -12 -4 -15 -7 -7 -7 18 5 44 17 37 5 -3 10 -16 9 -28z m248 11 c-3 -8 -6 -5 -6 6 -1 11 2 17 5 13 3 -3 4 -12 1 -19z m3593 12 c0 -5 -2 -10 -4 -10 -3 0 -8 5 -11 10 -3 6 -1 10 4 10 6 0 11 -4 11 -10z m-727 -13 c20 4 28 3 24 -4 -4 -6 0 -14 9 -17 9 -4 14 -9 11 -13 -4 -3 1 -12 11 -19 12 -10 13 -13 3 -14 -11 0 -11 -3 -1 -15 10 -12 10 -15 -4 -15 -9 0 -16 4 -16 9 0 4 -26 9 -57 9 l-58 0 35 -12 c19 -7 39 -9 45 -4 15 13 25 9 19 -7 -4 -10 0 -15 11 -15 17 0 17 -1 0 -20 -9 -10 -15 -28 -13 -38 4 -15 1 -18 -13 -15 -12 3 -19 0 -19 -8 0 -11 -2 -11 -9 0 -8 12 -14 12 -33 4 -13 -7 -17 -12 -10 -12 19 -1 14 -21 -6 -21 -10 0 -23 -5 -29 -11 -6 -6 -17 -9 -24 -7 -8 3 -2 14 19 33 23 20 29 32 22 39 -8 8 -14 6 -21 -6 -6 -10 -17 -18 -25 -18 -9 0 -21 -6 -29 -12 -33 -32 -52 -44 -63 -40 -7 2 -10 -2 -6 -11 3 -8 1 -18 -5 -21 -6 -4 -8 -13 -4 -21 3 -8 1 -15 -5 -15 -6 0 -12 5 -14 12 -2 6 -10 8 -16 4 -18 -11 -7 -23 28 -29 37 -8 39 -23 3 -31 -16 -4 -36 -9 -47 -13 -12 -3 -16 -1 -12 6 4 7 -1 11 -13 11 -10 0 -21 -5 -23 -11 -5 -14 -56 -15 -68 -3 -4 5 -11 19 -15 32 -5 16 -2 22 10 22 9 0 14 4 11 9 -4 5 7 12 24 16 16 4 32 10 35 15 3 4 -5 6 -17 3 -17 -3 -19 -2 -9 5 7 5 9 12 5 14 -5 3 -3 3 5 1 7 -2 19 1 25 5 22 17 98 43 90 31 -5 -9 -2 -10 10 -6 10 4 29 10 42 13 13 3 24 10 24 15 0 5 -12 4 -27 -2 -21 -8 -30 -7 -38 4 -6 8 -19 17 -30 20 -13 4 -10 5 7 3 18 -2 29 2 33 13 3 9 21 27 39 41 19 14 32 28 30 32 -10 15 20 20 31 5 16 -23 30 -21 32 3 1 11 -4 20 -12 20 -7 0 -15 7 -19 15 -3 10 1 15 13 15 10 0 26 9 36 20 12 13 22 17 28 11 6 -6 23 -7 40 -4z m396 -40 c0 -9 -2 -8 -6 1 -2 6 -10 9 -15 6 -7 -4 -8 -2 -4 5 9 13 26 5 25 -12z m-1219 -3 c0 -2 -9 -4 -20 -4 -11 0 -20 4 -20 9 0 5 9 7 20 4 11 -3 20 -7 20 -9z m-3070 -3 c0 -18 -18 -21 -30 -6 -10 13 -9 15 9 15 11 0 21 -4 21 -9z m4360 -5 c0 -2 -9 -6 -20 -9 -11 -3 -18 -1 -14 4 5 9 34 13 34 5z m-4453 -58 c-3 -8 -6 -5 -6 6 -1 11 2 17 5 13 3 -3 4 -12 1 -19z m181 -4 c2 -15 1 -16 -6 -5 -8 11 -18 11 -48 3 -24 -6 -31 -10 -17 -11 16 -1 20 -6 16 -21 -7 -27 -35 -49 -40 -32 -3 6 -9 10 -14 6 -14 -8 -79 18 -79 33 0 7 7 13 15 13 8 0 15 -7 15 -16 0 -13 3 -14 15 -4 8 6 23 9 36 5 13 -5 19 -3 15 3 -9 15 3 40 22 45 35 9 67 0 70 -19z m3978 17 c-4 -5 -1 -11 6 -13 6 -2 8 -10 4 -16 -12 -20 -23 -14 -21 11 3 26 3 27 11 27 3 0 3 -4 0 -9z m68 -7 c4 -10 1 -14 -6 -12 -15 5 -23 28 -10 28 5 0 13 -7 16 -16z m289 1 c-3 -9 -8 -14 -10 -11 -3 3 -2 9 2 15 9 16 15 13 8 -4z m-2788 -14 c-3 -6 -11 -11 -17 -11 -6 0 -6 6 2 15 14 17 26 13 15 -4z m2614 -11 c-16 -10 7 -24 24 -14 9 5 9 4 0 -6 -15 -16 -46 -23 -37 -9 3 5 -4 9 -15 9 -22 0 -29 24 -11 35 6 4 7 -1 3 -11 -4 -12 -2 -15 8 -12 8 3 12 13 11 23 -3 16 -2 17 13 5 11 -9 13 -15 4 -20z m36 12 c-3 -3 -11 0 -18 7 -9 10 -8 11 6 5 10 -3 15 -9 12 -12z m69 -13 c-3 -5 -14 -9 -26 -9 -17 0 -18 3 -8 14 12 15 44 10 34 -5z m-894 7 c0 -2 -7 -7 -16 -10 -8 -3 -12 -2 -9 4 6 10 25 14 25 6z m-3403 -43 c-3 -10 -5 -4 -5 12 0 17 2 24 5 18 2 -7 2 -21 0 -30z m4063 28 c0 -5 -9 -11 -20 -14 -11 -3 -20 -1 -20 3 0 5 8 11 18 13 9 3 18 5 20 6 1 0 2 -3 2 -8z m395 -1 c3 -5 2 -10 -4 -10 -5 0 -13 5 -16 10 -3 6 -2 10 4 10 5 0 13 -4 16 -10z m-4236 -4 c-16 -14 -69 -35 -69 -26 0 5 7 10 15 10 8 0 15 5 15 10 0 6 10 10 22 10 12 0 19 -2 17 -4z m-154 -16 c3 -5 1 -10 -4 -10 -6 0 -11 5 -11 10 0 6 2 10 4 10 3 0 8 -4 11 -10z m3882 -12 c-3 -8 -6 -5 -6 6 -1 11 2 17 5 13 3 -3 4 -12 1 -19z m-3658 3 c8 -5 9 -11 3 -15 -5 -3 -15 1 -22 9 -14 16 -3 20 19 6z m3771 -6 c0 -8 -4 -15 -8 -15 -5 0 -9 7 -9 15 0 8 4 15 9 15 4 0 8 -7 8 -15z m44 6 c3 -5 -1 -11 -9 -15 -9 -3 -15 0 -15 9 0 16 16 20 24 6z m-4247 -23 c-3 -8 -6 -5 -6 6 -1 11 2 17 5 13 3 -3 4 -12 1 -19z m393 13 c0 -5 -11 -8 -25 -8 -14 0 -25 3 -25 8 0 5 11 9 25 9 14 0 25 -4 25 -9z m3751 -14 c-10 -9 -11 -8 -5 6 3 10 9 15 12 12 3 -3 0 -11 -7 -18z m289 5 c0 -2 -10 -13 -22 -24 -14 -11 -17 -18 -8 -15 8 2 20 -3 27 -12 11 -14 12 -13 8 5 -3 17 2 22 21 22 29 0 42 -16 20 -24 -18 -7 -19 -13 -7 -33 7 -11 13 -12 23 -3 19 15 51 9 54 -11 1 -9 -2 -17 -7 -17 -5 0 -9 -4 -9 -10 0 -16 27 -11 34 6 7 18 19 12 22 -11 1 -8 -2 -15 -8 -15 -5 0 -7 -13 -3 -32 l6 -33 -17 27 c-21 31 -54 44 -119 47 -36 2 -67 20 -47 28 19 7 14 25 -6 21 -10 -1 -30 9 -45 24 l-27 27 33 3 c23 2 31 8 29 19 -2 12 5 17 23 15 14 0 25 -3 25 -4z m210 4 c0 -2 -13 -6 -29 -8 -17 -2 -28 -1 -25 4 5 8 54 12 54 4z m-656 -46 c-6 -6 -15 -6 -24 0 -13 8 -12 10 3 10 12 0 16 5 11 13 -6 10 -4 10 7 0 8 -8 10 -16 3 -23z m291 0 c3 -6 1 -10 -4 -10 -6 0 -11 6 -11 13 0 6 -5 4 -11 -5 -5 -10 -17 -18 -25 -18 -14 0 -14 2 0 16 9 8 13 20 10 26 -4 6 2 6 14 -1 12 -6 24 -16 27 -21z m-4234 5 c1 -5 1 -17 0 -27 -1 -9 3 -19 9 -23 5 -3 10 -15 10 -26 0 -10 5 -19 11 -19 7 0 9 12 6 33 -6 42 8 67 38 67 27 0 36 -19 30 -70 -2 -19 -4 -49 -4 -67 l-1 -31 -84 0 -83 1 0 36 c1 62 -9 78 -44 73 -22 -3 -34 0 -41 12 -11 19 -64 22 -72 4 -3 -7 -5 -4 -3 7 2 15 10 20 32 21 17 1 37 4 46 8 20 9 52 4 61 -8 3 -5 14 -2 23 7 17 18 64 19 66 2z m26 -7 c-3 -8 -6 -5 -6 6 -1 11 2 17 5 13 3 -3 4 -12 1 -19z m4495 -21 c4 -6 23 -11 43 -11 l36 0 -27 -14 c-22 -12 -28 -12 -35 0 -6 9 -9 10 -9 1 0 -7 -4 -13 -9 -13 -5 0 -8 8 -7 18 1 13 -7 17 -36 17 -29 0 -34 3 -25 13 12 15 57 8 69 -11z m-4025 -1 c38 -3 65 -1 69 6 4 7 9 6 15 -3 5 -8 23 -12 48 -11 23 2 41 -2 41 -8 0 -5 7 -10 15 -10 8 0 15 5 15 10 0 15 117 13 123 -2 4 -10 8 -9 16 2 10 13 11 13 11 0 0 -12 2 -12 9 -1 7 10 13 11 31 1 18 -10 24 -9 31 1 7 11 9 9 9 -6 0 -18 -5 -20 -67 -17 -38 2 -71 9 -75 15 -6 9 -10 9 -16 -1 -6 -8 -43 -12 -120 -13 -61 -1 -109 -6 -106 -10 3 -5 3 -9 0 -9 -2 0 -12 -3 -22 -7 -14 -5 -16 -2 -12 14 4 15 0 23 -13 26 -11 3 -19 1 -19 -3 0 -10 -98 -6 -107 4 -13 13 -25 5 -20 -14 3 -13 0 -20 -9 -20 -8 0 -11 6 -7 16 4 11 -1 23 -13 32 -13 10 -14 13 -3 9 9 -3 21 -2 28 2 7 5 29 7 49 5 20 -1 65 -5 99 -8z m3273 4 c0 -5 -8 -10 -17 -10 -15 0 -16 2 -3 10 19 12 20 12 20 0z m106 0 c6 -6 27 -11 47 -12 28 -1 37 -5 37 -19 0 -10 -8 -20 -19 -24 -22 -7 -73 14 -65 27 3 5 -3 12 -15 15 -11 3 -18 9 -15 14 7 12 18 11 30 -1z m275 -23 c-10 -9 -11 -8 -5 6 3 10 9 15 12 12 3 -3 0 -11 -7 -18z m135 8 c-3 -8 -1 -15 5 -15 6 0 7 -5 3 -11 -4 -8 -9 -7 -15 2 -4 7 -6 16 -3 20 2 4 -10 10 -28 12 -32 4 -32 4 6 5 30 2 37 -1 32 -13z m-488 -4 c8 -4 13 -12 12 -17 0 -5 6 -11 16 -12 10 -3 14 0 10 7 -13 21 7 11 31 -15 21 -23 27 -24 53 -15 17 5 30 6 30 2 0 -4 18 -13 40 -20 22 -6 40 -16 40 -21 0 -13 -7 -13 -31 1 -15 7 -24 7 -35 -2 -8 -6 -14 -8 -14 -4 0 4 -8 1 -17 -6 -15 -12 -16 -12 -10 4 5 13 1 17 -21 17 -15 0 -47 13 -71 29 -36 24 -47 27 -62 18 -11 -7 -19 -15 -19 -19 0 -4 -7 -5 -15 -2 -24 9 -18 32 13 48 32 18 33 18 50 7z m-2757 -18 c13 -16 12 -17 -3 -4 -17 13 -22 21 -14 21 2 0 10 -8 17 -17z m-1281 -13 c11 -20 -3 -30 -15 -10 -3 6 -16 10 -28 10 -18 0 -19 2 -7 10 23 15 38 12 50 -10z m37 14 c-3 -3 -12 -4 -19 -1 -8 3 -5 6 6 6 11 1 17 -2 13 -5z m3248 -4 c3 -5 -1 -10 -10 -10 -9 0 -13 5 -10 10 3 6 8 10 10 10 2 0 7 -4 10 -10z m1075 0 c0 -5 -5 -10 -11 -10 -5 0 -7 5 -4 10 3 6 8 10 11 10 2 0 4 -4 4 -10z m158 -27 c10 -19 9 -20 -9 -16 -16 4 -18 8 -7 14 10 7 11 9 0 9 -7 0 -10 5 -7 11 8 12 8 12 23 -18z m44 20 c-6 -2 -9 -10 -6 -15 4 -7 2 -8 -5 -4 -13 9 -5 26 12 25 9 0 8 -2 -1 -6z m278 -3 c0 -5 -5 -10 -11 -10 -8 0 -7 -6 2 -17 11 -13 11 -17 2 -20 -7 -3 -13 -11 -13 -19 0 -8 -6 -11 -15 -8 -12 5 -13 9 -4 20 10 12 8 13 -6 8 -14 -6 -16 -4 -9 7 9 14 10 19 13 39 0 6 10 10 21 10 11 0 20 -4 20 -10z m-1530 -10 c-13 -8 -12 -10 3 -10 11 0 15 -5 11 -11 -4 -7 -22 -9 -45 -6 -29 4 -36 2 -32 -9 4 -10 0 -12 -11 -8 -16 6 -21 25 -10 37 4 3 15 2 25 -4 12 -6 19 -6 19 0 0 5 8 12 18 14 30 8 37 7 22 -3z m417 4 c-3 -3 -12 -4 -19 -1 -8 3 -5 6 6 6 11 1 17 -2 13 -5z m-2317 -19 c11 -13 10 -14 -4 -9 -9 3 -16 10 -16 15 0 13 6 11 20 -6z m3200 -18 c0 -8 4 -7 10 3 13 21 22 7 12 -20 l-9 -23 -15 22 c-8 12 -21 20 -29 18 -8 -2 -11 -2 -7 0 4 2 4 11 1 20 -5 13 -3 14 15 4 12 -7 22 -17 22 -24z m-4013 1 c-3 -8 -6 -5 -6 6 -1 11 2 17 5 13 3 -3 4 -12 1 -19z m-617 -21 c0 -5 10 -18 22 -28 l21 -19 -34 6 c-39 8 -50 15 -32 21 9 3 9 12 2 30 -8 23 -8 24 6 13 8 -7 15 -17 15 -23z m4371 16 c13 -16 12 -17 -3 -4 -10 7 -18 15 -18 17 0 8 8 3 21 -13z m119 -2 c0 -17 -18 -21 -24 -6 -3 9 0 15 9 15 8 0 15 -4 15 -9z m210 -2 c12 -8 10 -9 -7 -4 -15 4 -23 2 -23 -6 0 -7 -3 -10 -6 -6 -7 7 4 27 14 27 4 0 14 -5 22 -11z m-1370 -19 c0 -4 -6 -13 -14 -19 -11 -9 -13 -7 -13 13 0 17 4 23 13 19 8 -3 14 -9 14 -13z m260 16 c0 -2 3 -11 6 -19 4 -12 0 -14 -15 -10 -12 3 -21 1 -21 -5 0 -16 -38 -21 -44 -6 -6 16 30 44 56 44 10 0 18 -2 18 -4z m444 -11 c-7 -16 -24 -21 -24 -6 0 8 7 13 27 20 1 1 0 -6 -3 -14z m129 -2 c-7 -2 -19 -2 -25 0 -7 3 -2 5 12 5 14 0 19 -2 13 -5z m544 -29 c-9 -9 -28 6 -21 18 4 6 10 6 17 -1 6 -6 8 -13 4 -17z m-1247 1 c11 -13 9 -15 -14 -15 -14 0 -26 -5 -26 -11 0 -6 6 -9 13 -6 8 3 20 1 28 -4 10 -7 4 -9 -20 -7 -41 4 -52 25 -19 37 18 7 12 8 -24 7 -52 -2 -80 -16 -33 -16 40 0 20 -17 -28 -24 -26 -4 -36 -3 -32 5 4 6 14 8 22 5 10 -4 13 -2 10 8 -9 22 10 33 62 35 33 1 52 -4 61 -14z m566 5 c13 5 24 6 24 1 0 -5 7 -12 16 -15 9 -4 13 -2 8 5 -8 13 35 -8 53 -27 17 -17 7 -22 -44 -22 -23 -1 -50 -5 -60 -10 -10 -6 -20 -10 -23 -9 -12 2 -35 -19 -35 -33 0 -8 -10 -16 -22 -18 -13 -2 -23 2 -23 8 0 6 4 8 10 5 6 -4 7 6 4 25 -5 25 -3 30 12 31 17 0 17 2 -3 11 -12 6 -23 19 -26 29 -4 15 2 19 32 21 20 2 40 0 45 -4 5 -3 19 -2 32 2z m734 0 c0 -5 -2 -10 -4 -10 -3 0 -8 5 -11 10 -3 6 -1 10 4 10 6 0 11 -4 11 -10z m85 -10 c3 -5 2 -10 -4 -10 -5 0 -13 5 -16 10 -3 6 -2 10 4 10 5 0 13 -4 16 -10z m-4515 -9 c0 -16 -28 -20 -34 -5 -4 9 1 14 14 14 11 0 20 -4 20 -9z m-90 -22 c0 -6 -4 -7 -10 -4 -5 3 -10 11 -10 16 0 6 5 7 10 4 6 -3 10 -11 10 -16z m4070 10 c0 -16 -28 -22 -65 -15 -51 10 -43 22 15 23 28 0 50 -3 50 -8z m388 3 c8 8 10 5 7 -8 -3 -21 -23 -20 -45 3 -13 14 -13 14 6 5 15 -8 24 -8 32 0z m-4421 -8 c-3 -3 -12 -4 -19 -1 -8 3 -5 6 6 6 11 1 17 -2 13 -5z m4296 -20 c-4 -11 -7 -11 -19 1 -19 19 -18 24 5 18 12 -3 17 -11 14 -19z m-3803 0 c0 -2 -26 -3 -57 -3 -54 2 -55 2 -18 8 38 6 75 3 75 -5z m185 6 c-3 -5 -22 -10 -41 -10 -19 0 -34 5 -34 10 0 6 18 10 41 10 24 0 38 -4 34 -10z m63 3 c-10 -2 -26 -2 -35 0 -10 3 -2 5 17 5 19 0 27 -2 18 -5z m3327 -3 c3 -5 2 -10 -4 -10 -5 0 -13 5 -16 10 -3 6 -2 10 4 10 5 0 13 -4 16 -10z m489 -5 c-4 -8 -1 -15 5 -15 6 0 11 -4 11 -8 0 -14 -45 -8 -57 7 -10 13 -7 17 15 22 15 4 28 7 29 8 1 0 0 -6 -3 -14z m-3589 -5 c-11 -5 -56 -8 -100 -7 l-80 1 85 6 c47 3 92 7 100 7 8 1 6 -2 -5 -7z m118 -35 c2 -14 3 -25 1 -25 -5 0 -34 57 -34 66 0 16 28 -19 33 -41z m44 39 c-3 -3 -12 -4 -19 -1 -8 3 -5 6 6 6 11 1 17 -2 13 -5z m3273 -20 c0 -8 -10 -14 -23 -14 -30 0 -40 10 -27 26 13 15 50 6 50 -12z m-1302 2 c-7 -8 -15 -12 -17 -11 -5 6 10 25 20 25 5 0 4 -6 -3 -14z m542 -17 c0 -21 -29 -26 -48 -7 -9 9 -7 14 5 24 22 15 43 7 43 -17z m838 13 c13 11 15 10 9 -4 -3 -9 -1 -19 6 -21 7 -3 2 -4 -10 -4 -13 1 -23 5 -23 10 0 4 -6 7 -12 6 -31 -4 -39 1 -26 14 10 12 15 12 26 0 12 -11 17 -11 30 -1z m-3815 1 c-7 -2 -19 -2 -25 0 -7 3 -2 5 12 5 14 0 19 -2 13 -5z m72 -3 c4 -6 -7 -10 -24 -10 -17 0 -31 5 -31 10 0 6 11 10 24 10 14 0 28 -4 31 -10z m2495 4 c0 -8 -19 -13 -24 -6 -3 5 1 9 9 9 8 0 15 -2 15 -3z m863 -4 c61 1 88 -7 80 -26 -4 -10 3 -14 24 -14 16 0 33 4 39 9 5 5 28 4 57 -2 38 -9 47 -15 43 -29 -3 -14 2 -18 26 -18 17 0 27 -4 23 -10 -4 -6 -10 -8 -14 -5 -5 2 -6 -6 -4 -18 4 -22 3 -22 -104 -20 -59 0 -115 -3 -124 -7 -11 -6 -16 -5 -16 6 0 7 4 14 9 14 5 0 8 8 6 18 -2 9 4 18 12 18 29 3 31 4 18 18 -7 8 -16 12 -20 9 -5 -2 -8 -1 -8 4 0 4 -22 9 -49 9 -27 1 -66 10 -86 20 -33 15 -35 19 -19 25 10 5 28 6 39 3 11 -3 42 -5 68 -4z m-1123 -31 c0 -6 -4 -7 -10 -4 -5 3 -10 11 -10 16 0 6 5 7 10 4 6 -3 10 -11 10 -16z m407 15 c-3 -3 -12 -4 -19 -1 -8 3 -5 6 6 6 11 1 17 -2 13 -5z m567 -18 c-5 -13 -13 -16 -33 -11 -14 3 -34 7 -43 8 -10 1 -18 5 -18 10 0 5 15 7 33 3 17 -3 39 -1 47 4 18 11 22 7 14 -14z m586 10 c0 -3 -4 -8 -10 -11 -5 -3 -10 -1 -10 4 0 6 5 11 10 11 6 0 10 -2 10 -4z m-990 -26 c0 -5 -2 -10 -4 -10 -3 0 -8 5 -11 10 -3 6 -1 10 4 10 6 0 11 -4 11 -10z m-3240 -16 c0 -2 -11 -4 -25 -4 -14 0 -25 4 -25 9 0 4 11 6 25 3 14 -2 25 -6 25 -8z m135 -17 c15 -4 14 -5 -7 -6 -21 -1 -28 4 -28 17 0 11 3 13 8 6 4 -7 16 -14 27 -17z m455 -2 c25 -7 37 -14 27 -14 -10 -1 -16 -4 -14 -8 7 -11 -153 -16 -214 -8 -79 11 -56 25 41 25 79 0 89 2 83 17 -5 13 -3 15 13 9 10 -5 39 -14 64 -21z m-506 6 c3 -4 -6 -6 -19 -3 -14 2 -25 6 -25 8 0 8 39 4 44 -5z m3175 -17 c-6 -7 -15 -11 -21 -8 -5 3 -4 12 3 20 6 7 15 11 21 8 5 -3 4 -12 -3 -20z m556 5 c5 -6 2 -9 -9 -9 -15 0 -16 -3 -6 -15 15 -19 3 -19 -30 0 -23 12 -23 14 -7 21 15 5 16 9 5 16 -9 6 -5 7 12 3 14 -4 29 -11 35 -16z m-2995 1 c0 -5 -5 -10 -11 -10 -5 0 -7 5 -4 10 3 6 8 10 11 10 2 0 4 -4 4 -10z m2080 -2 c0 -4 -4 -8 -9 -8 -6 0 -12 4 -15 8 -3 5 1 9 9 9 8 0 15 -4 15 -9z m-2170 -8 c0 -5 -2 -10 -4 -10 -3 0 -8 5 -11 10 -3 6 -1 10 4 10 6 0 11 -4 11 -10z m2780 -11 c0 -6 -4 -7 -10 -4 -5 3 -10 11 -10 16 0 6 5 7 10 4 6 -3 10 -11 10 -16z m-3378 -10 c16 -6 45 -9 66 -7 21 3 78 2 128 -3 49 -5 164 -9 256 -9 158 0 166 -1 161 -19 -3 -11 -12 -21 -21 -23 -10 -3 -161 -4 -337 -3 -257 0 -325 4 -345 15 -14 8 -30 13 -36 12 -8 -2 -34 37 -34 52 0 8 138 -5 162 -15z m181 14 c-7 -2 -21 -2 -30 0 -10 3 -4 5 12 5 17 0 24 -2 18 -5z m3147 -3 c0 -5 7 -10 16 -10 8 0 12 -5 8 -11 -4 -8 -9 -8 -17 0 -6 6 -19 11 -29 11 -10 0 -18 5 -18 10 0 6 9 10 20 10 11 0 20 -4 20 -10z m-3293 -6 c-3 -3 -12 -4 -19 -1 -8 3 -5 6 6 6 11 1 17 -2 13 -5z m2673 -4 c0 -5 -4 -10 -10 -10 -5 0 -10 5 -10 10 0 6 5 10 10 10 6 0 10 -4 10 -10z m208 -32 c-2 -7 3 -13 10 -14 6 -1 15 -2 19 -3 4 0 2 -6 -5 -13 -9 -9 -15 -9 -24 0 -15 15 -32 16 -23 2 4 -6 -6 -10 -22 -9 -16 0 -22 3 -13 6 8 3 23 14 34 25 23 21 27 22 24 6z m987 -28 c3 -5 -1 -10 -9 -10 -9 0 -16 5 -16 10 0 6 4 10 9 10 6 0 13 -4 16 -10z m-185 -15 c0 -8 -7 -15 -15 -15 -8 0 -15 5 -15 11 0 5 5 7 10 4 6 -3 10 -1 10 4 0 6 2 11 5 11 3 0 5 -7 5 -15z m34 -1 c3 -9 4 -19 2 -22 -2 -4 9 -7 25 -7 16 0 29 5 29 12 0 7 17 11 45 11 24 -1 52 5 61 13 14 12 19 10 37 -16 12 -16 30 -36 39 -44 20 -17 62 -26 53 -11 -3 5 1 10 10 10 8 0 18 -6 21 -14 3 -8 14 -16 26 -19 15 -4 18 -11 13 -29 -6 -22 -5 -22 9 -4 14 18 15 17 22 -9 4 -15 2 -31 -5 -38 -8 -8 -11 -8 -11 2 0 6 -13 17 -30 22 -16 6 -32 20 -35 31 -4 10 -13 17 -20 15 -7 -3 -17 -1 -22 4 -6 6 -9 2 -8 -10 1 -12 4 -24 8 -27 4 -4 7 -11 7 -16 0 -16 -26 -7 -72 25 -38 27 -45 36 -35 47 9 10 9 11 0 6 -7 -4 -13 -2 -13 3 0 8 -5 8 -18 0 -13 -8 -27 -7 -55 5 -21 8 -43 13 -50 10 -17 -6 -43 16 -52 44 -7 25 10 31 19 6z m354 4 c-3 -7 -11 -13 -18 -13 -7 0 -15 6 -17 13 -3 7 4 12 17 12 13 0 20 -5 18 -12z m-528 -18 c0 -5 -2 -10 -4 -10 -3 0 -8 5 -11 10 -3 6 -1 10 4 10 6 0 11 -4 11 -10z m-486 -15 c3 -8 1 -15 -3 -15 -5 0 -11 7 -15 15 -3 8 -1 15 3 15 5 0 11 -7 15 -15z m14 -53 c2 -7 -6 -12 -17 -12 -12 0 -21 6 -21 14 0 17 32 15 38 -2z"></path><path d="M6186 2975 c-9 -14 -13 -25 -9 -25 10 0 36 40 30 46 -2 3 -12 -7 -21 -21z"></path><path d="M6246 2984 c-3 -8 -10 -13 -15 -10 -9 6 -23 -19 -15 -27 13 -13 44 7 44 29 0 28 -5 31 -14 8z"></path><path d="M2156 3433 c-6 -14 -5 -15 5 -6 7 7 10 15 7 18 -3 3 -9 -2 -12 -12z"></path><path d="M2587 2876 c-4 -10 -7 -25 -6 -34 0 -11 4 -9 10 7 5 13 8 29 6 35 -2 5 -6 2 -10 -8z"></path><path d="M1830 3421 c0 -6 4 -13 10 -16 6 -3 7 1 4 9 -7 18 -14 21 -14 7z"></path><path d="M4978 2793 c7 -3 16 -2 19 1 4 3 -2 6 -13 5 -11 0 -14 -3 -6 -6z"></path><path d="M3966 1711 c-4 -7 -5 -15 -2 -18 9 -9 19 4 14 18 -4 11 -6 11 -12 0z"></path><path d="M4110 1719 c0 -16 4 -19 23 -13 28 8 30 10 22 23 -12 20 -45 13 -45 -10z"></path><path d="M4220 1475 c0 -32 3 -36 23 -33 17 2 22 10 22 33 0 23 -5 31 -22 33 -20 3 -23 -1 -23 -33z"></path><path d="M4480 1480 c0 -5 5 -10 10 -10 6 0 10 5 10 10 0 6 -4 10 -10 10 -5 0 -10 -4 -10 -10z"></path><path d="M2310 1120 c0 -5 7 -10 15 -10 8 0 15 5 15 10 0 6 -7 10 -15 10 -8 0 -15 -4 -15 -10z"></path><path d="M2410 1110 c0 -24 29 -38 40 -20 12 19 1 40 -21 40 -12 0 -19 -7 -19 -20z"></path><path d="M3220 1120 c0 -5 7 -10 15 -10 8 0 15 5 15 10 0 6 -7 10 -15 10 -8 0 -15 -4 -15 -10z"></path><path d="M3554 1115 c-4 -9 -2 -21 4 -27 15 -15 44 -1 40 19 -4 23 -36 29 -44 8z"></path><path d="M4296 732 c-3 -4 11 -9 30 -9 19 -1 34 3 34 8 0 11 -57 12 -64 1z"></path><path d="M3998 544 c-27 -8 -48 -19 -48 -25 0 -7 7 -8 18 -4 9 4 32 9 50 12 18 3 32 12 32 19 0 8 -1 14 -2 13 -2 0 -24 -7 -50 -15z"></path><path d="M4740 621 c0 -6 5 -11 11 -11 5 0 7 -4 4 -10 -3 -6 1 -7 10 -4 19 8 77 -15 70 -27 -3 -4 -12 -6 -20 -2 -8 3 -15 0 -15 -7 0 -8 12 -10 40 -5 26 4 40 3 40 -4 0 -19 17 -12 23 10 5 18 2 20 -21 16 -16 -3 -38 3 -61 18 -46 28 -81 40 -81 26z"></path><path d="M4798 393 c6 -2 18 -2 25 0 6 3 1 5 -13 5 -14 0 -19 -2 -12 -5z"></path><path d="M4648 313 c7 -3 16 -2 19 1 4 3 -2 6 -13 5 -11 0 -14 -3 -6 -6z"></path><path d="M4708 303 c6 -2 18 -2 25 0 6 3 1 5 -13 5 -14 0 -19 -2 -12 -5z"></path><path d="M4768 163 c7 -3 16 -2 19 1 4 3 -2 6 -13 5 -11 0 -14 -3 -6 -6z"></path><path d="M3720 3751 c0 -11 5 -23 10 -26 6 -4 9 -1 8 6 -2 7 8 18 22 26 l25 13 -32 0 c-26 0 -33 -4 -33 -19z"></path><path d="M3888 3763 c6 -2 18 -2 25 0 6 3 1 5 -13 5 -14 0 -19 -2 -12 -5z"></path><path d="M4289 3756 c6 -7 9 -21 5 -30 -4 -9 -1 -16 6 -16 6 0 14 9 17 20 3 12 14 20 27 20 17 0 18 2 6 10 -8 5 -28 10 -44 10 -23 0 -26 -3 -17 -14z"></path><path d="M4870 3761 c0 -6 4 -12 9 -15 5 -4 12 -28 16 -55 6 -47 27 -72 40 -50 4 5 10 7 15 4 5 -3 13 2 18 12 8 14 12 12 26 -15 9 -18 19 -32 21 -32 3 0 5 36 5 80 l0 80 -75 0 c-41 0 -75 -4 -75 -9z"></path><path d="M3850 3579 c0 -5 5 -7 10 -4 6 3 10 8 10 11 0 2 -4 4 -10 4 -5 0 -10 -5 -10 -11z"></path><path d="M2931 3444 c0 -11 3 -14 6 -6 3 7 2 16 -1 19 -3 4 -6 -2 -5 -13z"></path><path d="M2931 3384 c0 -11 3 -14 6 -6 3 7 2 16 -1 19 -3 4 -6 -2 -5 -13z"></path><path d="M4110 3371 c-8 -6 -17 -8 -21 -5 -4 2 -10 0 -14 -6 -3 -5 1 -10 10 -10 8 0 18 -7 21 -15 5 -11 10 -12 24 -2 15 9 23 8 38 -6 21 -19 48 -22 58 -6 9 16 -15 29 -53 29 -25 0 -31 4 -27 15 7 17 -13 20 -36 6z"></path><path d="M4220 3275 c0 -8 5 -15 10 -15 6 0 10 7 10 15 0 8 -4 15 -10 15 -5 0 -10 -7 -10 -15z"></path><path d="M4740 3240 c0 -5 4 -10 9 -10 6 0 13 5 16 10 3 6 -1 10 -9 10 -9 0 -16 -4 -16 -10z"></path><path d="M4970 3240 c0 -5 7 -10 16 -10 8 0 12 5 9 10 -3 6 -10 10 -16 10 -5 0 -9 -4 -9 -10z"></path><path d="M3625 3120 c3 -5 8 -10 11 -10 2 0 4 5 4 10 0 6 -5 10 -11 10 -5 0 -7 -4 -4 -10z"></path><path d="M4660 2924 c0 -20 38 -27 55 -10 21 20 20 22 -20 22 -21 0 -35 -5 -35 -12z"></path><path d="M20 2481 c0 -4 8 -7 18 -7 9 -1 34 -4 55 -9 29 -6 37 -4 37 7 0 12 -13 15 -55 15 -30 0 -55 -3 -55 -6z"></path><path d="M210 2460 c-13 -8 -13 -10 2 -10 9 0 20 5 23 10 8 13 -5 13 -25 0z"></path><path d="M688 2463 c6 -2 18 -2 25 0 6 3 1 5 -13 5 -14 0 -19 -2 -12 -5z"></path><path d="M940 2459 c0 -5 5 -7 10 -4 6 3 10 8 10 11 0 2 -4 4 -10 4 -5 0 -10 -5 -10 -11z"></path><path d="M0 2450 c0 -5 9 -10 20 -10 11 0 20 5 20 10 0 6 -9 10 -20 10 -11 0 -20 -4 -20 -10z"></path><path d="M60 2440 c0 -5 9 -10 20 -10 11 0 20 5 20 10 0 6 -9 10 -20 10 -11 0 -20 -4 -20 -10z"></path><path d="M125 2430 c3 -5 15 -10 26 -10 10 0 19 5 19 10 0 6 -12 10 -26 10 -14 0 -23 -4 -19 -10z"></path><path d="M190 2420 c0 -5 9 -10 20 -10 11 0 20 5 20 10 0 6 -9 10 -20 10 -11 0 -20 -4 -20 -10z"></path><path d="M250 2410 c20 -13 40 -13 40 0 0 6 -12 10 -27 10 -22 0 -25 -2 -13 -10z"></path><path d="M3807 336 c-3 -8 0 -17 7 -19 10 -4 12 1 9 14 -6 23 -9 24 -16 5z"></path><path d="M3854 301 c14 -5 16 -10 7 -15 -6 -4 -19 -5 -27 -2 -9 3 -12 2 -9 -5 6 -9 57 -4 79 8 13 8 -16 23 -44 22 -22 0 -23 -1 -6 -8z"></path><path d="M3755 290 c-3 -5 -1 -10 4 -10 6 0 11 5 11 10 0 6 -2 10 -4 10 -3 0 -8 -4 -11 -10z"></path><path d="M4066 278 c5 -7 -3 -9 -22 -5 -25 4 -26 3 -11 -7 19 -15 12 -26 -17 -26 -17 -1 -18 -2 -6 -9 8 -4 29 -7 45 -6 17 1 38 3 48 4 27 2 20 28 -13 45 -17 8 -27 10 -24 4z"></path><path d="M3925 234 c9 -9 19 -13 23 -10 3 4 0 11 -8 16 -24 15 -33 11 -15 -6z"></path><path d="M3529 206 c17 -20 61 -27 54 -9 -3 8 -12 12 -19 9 -8 -3 -14 -1 -14 4 0 6 -7 10 -16 10 -13 0 -14 -3 -5 -14z"></path><path d="M3637 195 c5 -14 43 -28 43 -17 0 4 -11 12 -24 18 -19 9 -23 9 -19 -1z"></path><path d="M3603 182 c1 -14 5 -18 11 -12 7 7 6 14 -1 21 -9 9 -12 7 -10 -9z"></path><path d="M3391 130 c-19 -11 5 -23 25 -12 14 8 14 10 2 15 -8 3 -21 2 -27 -3z"></path><path d="M4316 131 c-10 -16 21 -20 41 -6 17 13 16 14 -9 15 -15 0 -29 -4 -32 -9z"></path><path d="M3550 116 c0 -15 44 -35 73 -34 19 1 11 15 -13 20 -8 2 -21 9 -28 16 -18 16 -32 15 -32 -2z"></path><path d="M4390 110 c0 -5 5 -10 10 -10 6 0 10 5 10 10 0 6 -4 10 -10 10 -5 0 -10 -4 -10 -10z"></path><path d="M3500 106 c0 -2 7 -6 15 -10 8 -3 15 -1 15 4 0 6 -7 10 -15 10 -8 0 -15 -2 -15 -4z"></path><path d="M3850 106 c0 -3 9 -10 20 -16 11 -6 20 -8 20 -6 0 3 -9 10 -20 16 -11 6 -20 8 -20 6z"></path><path d="M3747 94 c-8 -8 3 -34 14 -34 11 0 12 27 0 34 -4 3 -11 3 -14 0z"></path><path d="M3787 40 c7 -27 20 -34 27 -14 3 8 2 12 -4 9 -6 -3 -7 1 -4 9 4 10 1 16 -9 16 -10 0 -13 -7 -10 -20z"></path><path d="M4710 50 c17 -11 47 -14 36 -3 -3 4 -17 8 -29 10 -17 2 -19 1 -7 -7z"></path><path d="M4170 39 c0 -5 5 -7 10 -4 6 3 10 8 10 11 0 2 -4 4 -10 4 -5 0 -10 -5 -10 -11z"></path><path d="M3465 20 c3 -5 12 -7 20 -3 21 7 19 13 -6 13 -11 0 -18 -4 -14 -10z"></path><path d="M3510 15 c-8 -9 -8 -15 -2 -15 12 0 26 19 19 26 -2 2 -10 -2 -17 -11z"></path><path d="M3550 16 c0 -18 27 -21 50 -6 13 8 13 10 -2 10 -9 0 -23 3 -32 6 -11 4 -16 1 -16 -10z"></path><path d="M4284 18 c-10 -15 1 -20 42 -16 l39 3 -37 12 c-24 7 -40 8 -44 1z"></path><path d="M3820 10 c0 -5 5 -10 10 -10 6 0 10 5 10 10 0 6 -4 10 -10 10 -5 0 -10 -4 -10 -10z"></path><path d="M4140 10 c8 -5 22 -9 30 -9 10 0 8 3 -5 9 -27 12 -43 12 -25 0z"></path><path d="M4420 10 c0 -6 17 -10 37 -10 42 0 37 12 -7 17 -16 1 -30 -2 -30 -7z"></path></g></svg>